<?xml version="1.0" standalone="no"?>
<!DOCTYPE svg PUBLIC "-//W3C//DTD SVG 1.1//EN" "http://www.w3.org/Graphics/SVG/1.1/DTD/svg11.dtd" >
<!--
2013-9-30: Created.
-->
<svg>
<metadata>
Created by iconfont
</metadata>
<defs>

<font id="iconfont" horiz-adv-x="1024" >
  <font-face
    font-family="iconfont"
    font-weight="500"
    font-stretch="normal"
    units-per-em="1024"
    ascent="896"
    descent="-128"
  />
    <missing-glyph />
    
    <glyph glyph-name="zhiding" unicode="&#58935;" d="M526.4 668.266667c-8 7.466667-20.8 7.466667-29.333333 0L242.133333 429.333333c-8.533333-8-9.066667-21.333333-1.066666-30.4l29.333333-30.933333c8-8.533333 21.333333-9.066667 30.4-1.066667L469.333333 525.333333v-533.333333c0-11.733333 9.6-21.333333 21.333334-21.333333h42.666666c11.733333 0 21.333333 9.6 21.333334 21.333333v533.333333l168.533333-157.866666c8.533333-8 21.866667-7.466667 30.4 1.066666l29.333333 30.933334c8 8.533333 7.466667 21.866667-1.066666 30.4L526.4 668.266667zM896 794.666667H128c-11.733333 0-21.333333-9.6-21.333333-21.333334v-42.666666c0-11.733333 9.6-21.333333 21.333333-21.333334h768c11.733333 0 21.333333 9.6 21.333333 21.333334v42.666666c0 11.733333-9.6 21.333333-21.333333 21.333334z"  horiz-adv-x="1024" />

    
    <glyph glyph-name="shanchu1" unicode="&#58996;" d="M224 640v-639.84c-0-0.048-0-0.104-0-0.16 0-35.29 28.563-63.909 63.831-64l448.329-0c35.277 0.091 63.84 28.71 63.84 64 0 0.056-0 0.113-0 0.169l0 639.831h64c17.673 0 32 14.327 32 32s-14.327 32-32 32h-704c-17.673 0-32-14.327-32-32s14.327-32 32-32h64zM384 800c0 17.664 14.496 32 31.904 32h192.192c17.6 0 31.904-14.208 31.904-32 0-17.664-14.496-32-31.904-32h-192.192c-0.010-0-0.021-0-0.032-0-17.602 0-31.872 14.27-31.872 31.872 0 0.045 0 0.090 0 0.135zM288 608.256c0 17.536 14.4 31.744 32.224 31.744h383.552c17.824 0 32.224-14.56 32.224-31.744v-576.512c0-17.536-14.4-31.744-32.224-31.744h-383.552c-0.001-0-0.002-0-0.004-0-17.628 0-31.95 14.155-32.22 31.719l-0 576.537zM352 544c0 17.696 14.208 32.032 32 32.032 17.664 0 32-14.24 32-32v-448c0-17.664-14.208-32-32-32-17.664 0-32 14.24-32 32v447.968zM480 544c0 17.696 14.208 32.032 32 32.032 17.664 0 32-14.24 32-32v-448c0-17.664-14.208-32-32-32-17.664 0-32 14.24-32 32v447.968zM608 544c0 17.696 14.208 32.032 32 32.032 17.664 0 32-14.24 32-32v-448c0-17.664-14.208-32-32-32-17.664 0-32 14.24-32 32v447.968z"  horiz-adv-x="1024" />

    
    <glyph glyph-name="fanhuidingbu" unicode="&#59076;" d="M516.544 498.752a31.904 31.904 0 0 1-22.624-9.376L86.624 82.08000000000004a32 32 0 1 1 45.248-45.248l384.672 384.64 384.672-384.64a32 32 0 0 1 45.248 45.248L539.2 489.376a31.904 31.904 0 0 1-22.624 9.376zM96 704h832a32 32 0 0 0 0-64H96a32 32 0 1 0 0 64z"  horiz-adv-x="1024" />

    
    <glyph glyph-name="shuaxin1" unicode="&#59023;" d="M281.12 768c-130.112-78.4-217.12-221.024-217.12-384 0-247.424 200.576-448 448-448 17.673 0 32 14.327 32 32 0 17.673-14.327 32-32 32-212.064 0-384 171.936-384 384 0 154.976 91.808 288.512 224 349.184v-125.824c0-17.344 14.848-31.392 32-31.392 17.664 0 32 13.76 32 31.392v193.248c-0.052 8.657-3.657 16.461-9.43 22.036l0.15 0.172c-5.611 5.672-13.396 9.184-22.001 9.184-0.039 0-0.078-0-0.117-0l-193.21 0c-17.344 0-31.392-14.848-31.392-32 0-17.664 13.76-32 31.392-32h89.728zM742.88 0c130.112 78.4 217.12 221.024 217.12 384 0 247.424-200.576 448-448 448-17.673 0-32-14.327-32-32 0-17.673 14.327-32 32-32 212.064 0 384-171.936 384-384 0-154.976-91.808-288.512-224-349.184v125.824c0 17.344-14.848 31.392-32 31.392-17.664 0-32-13.76-32-31.392v-193.216c0-8.576 3.616-16.32 9.376-21.984l-0.096-0.224c5.611-5.672 13.396-9.184 22.001-9.184 0.039 0 0.078 0 0.117 0l193.21-0c17.344 0 31.392 14.848 31.392 32 0 17.664-13.76 32-31.392 32h-89.728z"  horiz-adv-x="1024" />

    
    <glyph glyph-name="shangchuan1" unicode="&#59018;" d="M793.6 537.6C768 668.8 652.8 768 512 768s-256-99.2-281.6-230.4C134.4 512 64 422.4 64 320c0-124.8 99.2-224 224-224h32v64h-32c-89.6 0-160 70.4-160 160s70.4 160 160 160c0 124.8 99.2 224 224 224s224-99.2 224-224c89.6 0 160-70.4 160-160s-70.4-160-160-160h-32v-64h32c124.8 0 224 99.2 224 224 0 102.4-70.4 192-166.4 217.6zM540.8 406.4c-12.8 9.6-25.6 12.8-38.4 6.4-3.2 0-6.4-3.2-9.6-6.4l-96-92.8c-12.8-12.8-12.8-32 0-44.8 12.8-12.8 35.2-12.8 48 0l38.4 35.2v-272c0-19.2 16-32 32-32 19.2 0 32 16 32 32V304l38.4-35.2c12.8-12.8 35.2-12.8 48 0 12.8 12.8 12.8 32 0 44.8l-92.8 92.8z"  horiz-adv-x="1024" />

    
    <glyph glyph-name="tuandui" unicode="&#59020;" d="M544 361.6c57.6 41.6 96 108.8 96 182.4 0 124.8-99.2 224-224 224s-224-99.2-224-224c0-76.8 38.4-144 96-182.4C156.8 310.4 64 182.39999999999998 64 32v-32h64v32c0 160 128 288 288 288s288-128 288-288c0-9.6 0-22.4-3.2-32h64v32C768 182.39999999999998 675.2 310.4 544 361.6zM416 384c-89.6 0-160 70.4-160 160s70.4 160 160 160 160-70.4 160-160-70.4-160-160-160zM780.8 393.6C812.8 422.4 832 464 832 512c0 80-57.6 147.2-134.4 156.8l-9.6-64c44.8-6.4 80-48 80-96 0-54.4-41.6-96-96-96v-64c124.8 0 224-99.2 224-224 0-9.6 0-22.4-3.2-32h64c0 9.6 3.2 22.4 3.2 32 0 124.8-73.6 227.2-179.2 268.8z"  horiz-adv-x="1024" />

    
    <glyph glyph-name="xiazai1" unicode="&#59021;" d="M793.6 537.6C768 668.8 652.8 768 512 768s-256-99.2-281.6-230.4C134.4 512 64 422.4 64 320c0-124.8 99.2-224 224-224h32v64h-32c-89.6 0-160 70.4-160 160s70.4 160 160 160c0 124.8 99.2 224 224 224s224-99.2 224-224c89.6 0 160-70.4 160-160s-70.4-160-160-160h-32v-64h32c124.8 0 224 99.2 224 224 0 102.4-70.4 192-166.4 217.6zM588.8 147.20000000000005L550.4 112V384c0 19.2-16 32-32 32-19.2 0-32-16-32-32v-272L448 147.20000000000005c-12.8 12.8-35.2 12.8-48 0-12.8-12.8-12.8-32 0-44.8l96-92.8c3.2-3.2 6.4-6.4 9.6-6.4 12.8-6.4 25.6-3.2 35.2 6.4l92.8 92.8c12.8 12.8 12.8 32 0 44.8-9.6 12.8-32 12.8-44.8 0z"  horiz-adv-x="1024" />

    
    <glyph glyph-name="lianjie" unicode="&#59022;" d="M902.4 774.4c-73.6 76.8-198.4 76.8-272 0l-112-115.2c-12.8-12.8-12.8-35.2 0-48 12.8-12.8 32-12.8 44.8 0l112 115.2c51.2 51.2 131.2 51.2 182.4 0 51.2-51.2 51.2-134.4 0-185.6l-182.4-185.6c-51.2-51.2-131.2-51.2-182.4 0-12.8 12.8-32 12.8-44.8 0s-12.8-35.2 0-48c73.6-76.8 198.4-76.8 272 0l182.4 185.6c76.8 80 76.8 204.8 0 281.6zM460.8 156.8l-112-115.2c-51.2-51.2-131.2-51.2-182.4 0-51.2 51.2-51.2 134.4 0 185.6l182.4 185.6c51.2 51.2 131.2 51.2 182.4 0 12.8-12.8 32-12.8 44.8 0 12.8 12.8 12.8 35.2 0 48-73.6 76.8-198.4 76.8-272 0l-182.4-185.6c-76.8-76.8-73.6-201.6 0-278.4s198.4-76.8 272 0l112 115.2c12.8 12.8 12.8 35.2 0 48-12.8 9.6-32 9.6-44.8-3.2z"  horiz-adv-x="1024" />

    
    <glyph glyph-name="biaoqian" unicode="&#59024;" d="M768 790.4h-512c-35.2 0-64-28.8-64-64v-713.6c-3.2-9.6 0-19.2 9.6-25.6 12.8-12.8 28.8-12.8 41.6 0l268.8 268.8 268.8-268.8c12.8-12.8 28.8-12.8 41.6 0 6.4 6.4 9.6 16 9.6 25.6v713.6c0 35.2-28.8 64-64 64zM768 83.2l-233.6 236.8c-6.4 6.4-12.8 9.6-22.4 9.6-6.4 0-16-3.2-22.4-9.6l-233.6-236.8v608c0 19.2 12.8 32 32 32h448c19.2 0 32-12.8 32-32v-608z"  horiz-adv-x="1024" />

    
    <glyph glyph-name="caidan1" unicode="&#59025;" d="M224 224h-64c-19.2 0-32-16-32-32v-64c0-19.2 16-32 32-32h64c19.2 0 32 16 32 32v64c0 19.2-16 32-32 32zM352 576h512c16 0 32 12.8 32 32s-12.8 32-32 32h-512c-16 0-32-12.8-32-32s12.8-32 32-32zM224 448h-64c-19.2 0-32-16-32-32v-64c0-19.2 16-32 32-32h64c19.2 0 32 16 32 32v64c0 19.2-16 32-32 32zM864 416h-512c-16 0-32-12.8-32-32s12.8-32 32-32h512c16 0 32 12.8 32 32s-12.8 32-32 32zM864 192h-512c-16 0-32-12.8-32-32s12.8-32 32-32h512c16 0 32 12.8 32 32s-12.8 32-32 32zM224 672h-64c-19.2 0-32-16-32-32v-64c0-19.2 16-32 32-32h64c19.2 0 32 16 32 32v64c0 19.2-16 32-32 32z"  horiz-adv-x="1024" />

    
    <glyph glyph-name="duoxuan" unicode="&#59026;" d="M896 832h-768c-35.2 0-64-28.8-64-64v-768c0-35.2 28.8-64 64-64h768c35.2 0 64 28.8 64 64v768c0 35.2-28.8 64-64 64zM896 32c0-19.2-12.8-32-32-32h-704c-19.2 0-32 12.8-32 32v704c0 19.2 12.8 32 32 32h704c19.2 0 32-12.8 32-32v-704zM694.4 531.2l-227.2-227.2-112 112c-12.8 12.8-32 12.8-44.8 0s-12.8-32 0-44.8l134.4-134.4c6.4-6.4 12.8-9.6 22.4-9.6 9.6 0 16 3.2 22.4 9.6l249.6 249.6c12.8 12.8 12.8 32 0 44.8-12.8 9.6-32 9.6-44.8 0z"  horiz-adv-x="1024" />

    
    <glyph glyph-name="shaixuan1" unicode="&#59034;" d="M816 832h-611.2c-60.8 0-108.8-48-108.8-108.8 0-25.6 9.6-51.2 25.6-70.4 0-3.2 3.2-3.2 3.2-6.4l240-240v-252.8c0-9.6 3.2-16 9.6-22.4l217.6-185.6c6.4-3.2 12.8-6.4 19.2-6.4 9.6 0 16 3.2 22.4 9.6 6.4 6.4 6.4 16 6.4 22.4v425.6l259.2 252.8c16 19.2 25.6 44.8 25.6 70.4 0 64-48 112-108.8 112zM851.2 691.2s-3.2-3.2 0 0l-259.2-259.2c-6.4-6.4-9.6-12.8-9.6-22.4v-377.6l-156.8 131.2v252.8c0 9.6-3.2 16-9.6 22.4l-246.4 252.8c-9.6 9.6-12.8 19.2-12.8 32 0 25.6 22.4 48 48 48h611.2c25.6 0 48-22.4 48-48 0-12.8-6.4-22.4-12.8-32z"  horiz-adv-x="1024" />

    
    <glyph glyph-name="tupian1" unicode="&#59037;" d="M316.8 448c38.4 0 76.8 22.4 89.6 57.6 16 35.2 6.4 76.8-19.2 105.6-25.6 28.8-70.4 35.2-105.6 22.4-35.2-16-57.6-54.4-57.6-92.8 0-51.2 41.6-92.8 92.8-92.8zM297.6 566.4c3.2 6.4 12.8 9.6 22.4 9.6 16 0 32-12.8 32-28.8s-12.8-32-28.8-35.2c-16 0-32 12.8-35.2 28.8 0 9.6 3.2 19.2 9.6 25.6zM896 768h-768c-35.2 0-64-28.8-64-64v-640c0-35.2 28.8-64 64-64h768c35.2 0 64 28.8 64 64v640c0 35.2-28.8 64-64 64zM896 96c0-16-12.8-32-32-32h-704c-19.2 0-32 16-32 32v576c0 16 12.8 32 32 32h704c19.2 0 32-16 32-32v-576zM793.6 544l-294.4-294.4-112 112c-6.4 6.4-12.8 9.6-22.4 9.6-9.6 0-16-3.2-22.4-9.6l-160-160c-12.8-12.8-12.8-32 0-44.8s32-12.8 44.8 0l134.4 134.4 112-112c6.4-6.4 12.8-9.6 22.4-9.6 9.6 0 16 3.2 22.4 9.6l316.8 316.8c12.8 12.8 12.8 32 0 44.8-9.6 16-28.8 16-41.6 3.2z"  horiz-adv-x="1024" />

    
    <glyph glyph-name="wenben" unicode="&#59038;" d="M672 608h-320c-9.6 0-16-3.2-22.4-9.6s-9.6-12.8-9.6-22.4v-64c0-19.2 12.8-32 32-32s32 16 32 32v32h96v-320h-32c-16 0-32-12.8-32-32s12.8-32 32-32h128c16 0 32 12.8 32 32s-12.8 32-32 32h-32v320h96v-32c0-19.2 12.8-32 32-32s32 16 32 32v64c0 9.6-3.2 16-9.6 22.4s-12.8 9.6-22.4 9.6zM896 768h-768c-35.2 0-64-28.8-64-64v-640c0-35.2 28.8-64 64-64h768c35.2 0 64 28.8 64 64v640c0 35.2-28.8 64-64 64zM896 96c0-16-12.8-32-32-32h-704c-19.2 0-32 16-32 32v576c0 16 12.8 32 32 32h704c19.2 0 32-16 32-32v-576z"  horiz-adv-x="1024" />

    
    <glyph glyph-name="html" unicode="&#59040;" d="M137.6 384l204.8 204.8c12.8 12.8 12.8 32 0 44.8s-32 12.8-44.8 0l-227.2-227.2c-6.4-6.4-9.6-12.8-9.6-22.4 0-9.6 3.2-16 9.6-22.4l227.2-227.2c12.8-12.8 32-12.8 44.8 0s12.8 32 0 44.8l-204.8 204.8zM601.6 723.2c-16 3.2-35.2-6.4-38.4-22.4l-166.4-617.6c-3.2-16 6.4-35.2 22.4-38.4 16-3.2 35.2 6.4 38.4 22.4l166.4 617.6c6.4 16-3.2 35.2-22.4 38.4zM953.6 406.4l-227.2 227.2c-12.8 12.8-32 12.8-44.8 0s-12.8-32 0-44.8l204.8-204.8-204.8-204.8c-12.8-12.8-12.8-32 0-44.8s32-12.8 44.8 0l227.2 227.2c6.4 6.4 9.6 16 9.6 22.4 0 9.6-3.2 16-9.6 22.4z"  horiz-adv-x="1024" />

    
    <glyph glyph-name="xiaolian-line" unicode="&#59042;" d="M512 832c247.136 0 448-200.864 448-448s-200.864-448-448-448S64 136.86400000000003 64 384 264.864 832 512 832z m0-832c211.968 0 384 172.032 384 384S723.968 768 512 768 128 595.9680000000001 128 384s172.032-384 384-384z m96 480a64 64 0 1 0 128 0 64 64 0 0 0-128 0zM288 480a64 64 0 1 0 128 0 64 64 0 0 0-128 0z m407.68-170.848c17.184-11.2 22.4-34.336 11.2-51.52A229.44 229.44 0 0 0 512 150.84799999999996a229.44 229.44 0 0 0-194.88 106.784 37.408 37.408 0 0 0 11.2 51.52 37.408 37.408 0 0 0 51.52-11.2A155.904 155.904 0 0 1 512 225.53599999999994c53.76 0 103.04 26.88 132.16 72.416 11.2 17.184 34.336 22.4 51.52 11.2z"  horiz-adv-x="1024" />

    
    <glyph glyph-name="kulian-line" unicode="&#59043;" d="M512 832c247.136 0 448-200.864 448-448s-200.864-448-448-448S64 136.86400000000003 64 384 264.864 832 512 832z m0-832c211.968 0 384 172.032 384 384S723.968 768 512 768 128 595.9680000000001 128 384s172.032-384 384-384z m96 480a64 64 0 1 0 128 0 64 64 0 0 0-128 0zM288 480a64 64 0 1 0 128 0 64 64 0 0 0-128 0z m407.68-323.2c-17.184-11.2-40.32-5.984-51.52 11.2A155.904 155.904 0 0 1 512 240.38400000000001c-53.76 0-103.04-26.88-132.16-72.448-11.2-17.152-34.336-22.4-51.52-11.2a37.408 37.408 0 0 0-11.2 51.52A229.44 229.44 0 0 0 512 315.072a229.44 229.44 0 0 0 194.88-106.784c11.2-17.152 5.984-40.32-11.2-51.52z"  horiz-adv-x="1024" />

    
    <glyph glyph-name="xianshi" unicode="&#59044;" d="M512 32c-290.752 0-410.4 243.584-441.568 318.208a91.968 91.968 0 0 0 0 67.584C101.6 492.416 221.248 736 512 736c289.408 0 410.4-243.584 441.568-318.208 8.576-22.08 8.576-45.536 0-67.584C922.4 275.58399999999995 801.408 32 512 32zM129.984 395.52a30.4 30.4 0 0 1 0-21.664C156.16 307.52 261.6 96 512 96s355.84 211.52 382.016 276.48a30.4 30.4 0 0 1 0 21.664C867.84 460.48 762.4 672 512 672S156.16 460.48 129.984 395.52zM512 224c-88.192 0-160 72.32-160 160s71.808 160 160 160 160-72.32 160-160-71.808-160-160-160z m0 256c-52.608 0-96-42.88-96-96s42.88-96 96-96 96 42.88 96 96-43.392 96-96 96z"  horiz-adv-x="1024" />

    
    <glyph glyph-name="suo" unicode="&#59052;" d="M704 480v96a192 192 0 1 1-384 0v-96h384zM192 416v-383.776A31.968 31.968 0 0 1 223.744 0h576.512c17.184 0 31.744 14.4 31.744 32.224V415.776 416H192z m-64 16V448a32 32 0 0 0 32 32h96v96a256 256 0 1 0 512 0v-96h96c17.664 0 32-14.208 32-32v-448.192A64 64 0 0 0 831.84-64H192.16A64 64 0 0 0 128-0.19200000000000728V432zM544 256v-128.32c0-17.472-14.208-31.68-32-31.68a32 32 0 0 0-32 31.68V256h-32.32a31.776 31.776 0 0 0-31.68 32 32 32 0 0 0 31.68 32h128.64c17.472 0 31.68-14.208 31.68-32a32 32 0 0 0-31.68-32H544z"  horiz-adv-x="1024" />

    
    <glyph glyph-name="duigou" unicode="&#59061;" d="M886.4 656c-12.8 12.8-32 12.8-44.8 0L364.8 179.20000000000005l-182.4 182.4c-12.8 12.8-32 12.8-44.8 0-12.8-12.8-12.8-32 0-44.8l204.8-204.8c6.4-6.4 12.8-9.6 22.4-9.6 9.6 0 16 3.2 22.4 9.6L886.4 611.2c12.8 12.8 12.8 32 0 44.8z"  horiz-adv-x="1024" />

    
    <glyph glyph-name="zidingyilie" unicode="&#59062;" d="M64 767.904A64 64 0 0 0 128.096 832h287.808A64 64 0 0 0 480 767.904v-287.808A64 64 0 0 0 415.904 416H128.096A64 64 0 0 0 64 480.096V767.904z m64-31.84v-224.128c0-17.664 14.304-31.936 31.936-31.936h224.128a31.904 31.904 0 0 1 31.936 31.936V736.064A31.904 31.904 0 0 1 384.064 768H159.936A31.904 31.904 0 0 1 128 736.064zM64 287.904A64 64 0 0 0 128.096 352h287.808A64 64 0 0 0 480 287.904v-287.808A64 64 0 0 0 415.904-64H128.096A64 64 0 0 0 64 0.09600000000000364v287.808zM544 288h416v-64H544v64z m0-224h416v-64H544v64z m0 704h416v-64H544V768z m0-224h416v-64H544v64zM128 256.06399999999996v-224.128c0-17.664 14.304-31.936 31.936-31.936h224.128a31.904 31.904 0 0 1 31.936 31.936v224.128a31.904 31.904 0 0 1-31.936 31.936H159.936a31.904 31.904 0 0 1-31.936-31.936z"  horiz-adv-x="1024" />

    
    <glyph glyph-name="suoxiao" unicode="&#59063;" d="M729.248 211.13599999999997l189.472-189.504a31.392 31.392 0 1 0-44.448-44.448L684.8 166.72000000000003a375.68 375.68 0 0 0-243.584-89.184C232.896 77.50400000000002 64 246.39999999999998 64 454.72 64 663.04 232.896 832 441.216 832c208.32 0 377.216-168.896 377.216-377.28 0-92.832-33.568-177.856-89.184-243.584z m-288.032-70.752c173.6 0 314.336 140.736 314.336 314.368s-140.736 314.368-314.336 314.368c-173.6 0-314.336-140.736-314.336-314.368s140.736-314.368 314.336-314.368zM252.608 454.72c0 17.344 10.56 31.424 23.584 31.424h330.048c13.024 0 23.584-14.08 23.584-31.424 0-17.376-10.56-31.456-23.584-31.456H276.192c-12.928 0.32-23.36 14.24-23.584 31.456z"  horiz-adv-x="1024" />

    
    <glyph glyph-name="fangda" unicode="&#59064;" d="M408.64 486.176V611.8720000000001a31.392 31.392 0 1 0 62.88 0v-125.696h134.72c13.024 0 23.584-14.08 23.584-31.424 0-17.376-10.56-31.456-23.584-31.456h-134.72v-125.664a31.392 31.392 0 1 0-62.88 0v125.664H276.16c-12.896 0.32-23.296 14.24-23.552 31.456 0 17.344 10.56 31.424 23.584 31.424h132.48z m320.608-275.04l189.472-189.504a31.392 31.392 0 1 0-44.448-44.448L684.8 166.72000000000003a375.68 375.68 0 0 0-243.584-89.184C232.896 77.50400000000002 64 246.39999999999998 64 454.72 64 663.04 232.896 832 441.216 832c208.32 0 377.216-168.896 377.216-377.28 0-92.832-33.568-177.856-89.184-243.584z m-288.032-70.752c173.6 0 314.336 140.736 314.336 314.368s-140.736 314.368-314.336 314.368c-173.6 0-314.336-140.736-314.336-314.368s140.736-314.368 314.336-314.368z"  horiz-adv-x="1024" />

    
    <glyph glyph-name="dakai" unicode="&#59065;" d="M102.4 486.4h819.2V589.038933A34.030933 34.030933 0 0 1 887.466667 622.933333H512V725.265067A34.030933 34.030933 0 0 1 477.7984 759.466667H136.6016C117.9648 759.466667 102.4 744.1408 102.4 725.265067V486.4z m0-68.266667v-375.3984A34.030933 34.030933 0 0 1 136.533333 8.53333299999997h750.933334c18.875733 0 34.133333 15.189333 34.133333 33.8944V418.133333H102.4z m477.866667 273.066667h341.640533C959.453867 691.2 989.866667 660.821333 989.866667 623.240533V8.192000000000007c0-37.546667-30.72-67.959467-67.959467-67.959467H102.058667c-18.773333 0-35.7376 7.5776-48.059734 19.899734A68.471467 68.471467 0 0 0 34.133333 8.430932999999982V759.569067C34.133333 797.218133 64.682667 827.733333 102.1952 827.733333h410.0096C549.7856 827.733333 580.266667 797.184 580.266667 759.569067V691.2z"  horiz-adv-x="1024" />

    
    <glyph glyph-name="key" unicode="&#59068;" d="M512-64C264.576-64 64 136.57600000000002 64 384S264.576 832 512 832s448-200.576 448-448-200.576-448-448-448z m0 64c212.064 0 384 171.936 384 384S724.064 768 512 768 128 596.0640000000001 128 384s171.936-384 384-384z m-272 286.56V528h53.696v-104.064l85.12 104.064h60.288L352 420.192l92.992-133.632h-61.248l-65.824 97.28-24.224-26.24v-71.04H240z m300.288-3.392c-14.4 0-27.36 2.432-38.816 7.296a86.08 86.08 0 0 0-29.12 19.904 85.664 85.664 0 0 0-18.208 29.056 96.96 96.96 0 0 0-6.208 34.528c0 12.928 2.08 25.12 6.208 36.544 4.16 11.456 10.176 21.504 18.016 30.08 7.872 8.64 17.536 15.456 28.992 20.416a97.184 97.184 0 0 0 39.136 7.488 96 96 0 0 0 38.944-7.488c11.36-4.96 20.96-11.712 28.832-20.224 7.872-8.48 13.792-18.304 17.856-29.44 4.032-11.072 6.048-22.752 6.048-35.008 0-3.168-0.096-6.272-0.32-9.344a68.64 68.64 0 0 0-0.96-8h-127.072c0.864-12 5.056-21.12 12.608-27.36 7.52-6.24 16.096-9.344 25.696-9.344 7.648 0 15.008 1.92 22.08 5.76a29.12 29.12 0 0 1 14.272 15.68l44.512-12.96c-6.752-14.048-17.216-25.504-31.424-34.336-14.176-8.832-31.2-13.248-51.072-13.248z m36.352 109.472c-1.088 11.36-5.024 20.32-11.808 26.88a34.752 34.752 0 0 1-25.216 9.856c-10.24 0-18.72-3.328-25.376-10.016-6.656-6.72-10.528-15.584-11.616-26.72h74.016z m80.544-132.96c4.352-1.6 8.448-2.72 12.288-3.392 3.84-0.672 7.264-1.024 10.304-1.024 6.336 0 11.232 2.272 14.72 6.816 3.52 4.512 6.688 12.672 9.504 24.48l-65.472 178.528h54.016l39.968-131.936 34.368 131.936H816l-65.504-207.424c-4.576-14.752-12.768-26.72-24.544-35.904-11.776-9.184-25.76-13.76-41.92-13.76a70.304 70.304 0 0 0-26.88 5.12l0.032 46.56z"  horiz-adv-x="1024" />

    
    <glyph glyph-name="jinggaocopy" unicode="&#59071;" d="M512-64C264.576-64 64 136.57600000000002 64 384S264.576 832 512 832s448-200.576 448-448-200.576-448-448-448z m0 64c212.064 0 384 171.936 384 384S724.064 768 512 768 128 596.0640000000001 128 384s171.936-384 384-384z m-32 223.68a32 32 0 1 0 64 0v-63.36a32 32 0 1 0-64 0v63.36z m0 384.48c0 17.6 14.208 31.84 32 31.84 17.664 0 32-14.592 32-31.84v-256.32c0-17.6-14.208-31.84-32-31.84-17.664 0-32 14.592-32 31.84v256.32z"  horiz-adv-x="1024" />

    
    <glyph glyph-name="xinxitishicopy" unicode="&#59072;" d="M480 224v192h-64c-17.664 0-32 14.208-32 32 0 17.664 14.208 32 32 32h96a31.904 31.904 0 0 0 32-31.84V224h64.096c17.6 0 31.904-14.208 31.904-32 0-17.664-14.496-32-31.904-32h-192.192A31.872 31.872 0 0 0 384 192c0 17.664 14.496 32 31.904 32H480z m32-288C264.576-64 64 136.57600000000002 64 384S264.576 832 512 832s448-200.576 448-448-200.576-448-448-448z m0 64c212.064 0 384 171.936 384 384S724.064 768 512 768 128 596.0640000000001 128 384s171.936-384 384-384zM448 592c0 26.496 21.312 48 48 48 26.496 0 48-21.312 48-48 0-26.496-21.312-48-48-48-26.496 0-48 21.312-48 48z"  horiz-adv-x="1024" />

    
    <glyph glyph-name="chenggongtishicopy" unicode="&#59073;" d="M512-64C264.576-64 64 136.57600000000002 64 384S264.576 832 512 832s448-200.576 448-448-200.576-448-448-448z m0 64c212.064 0 384 171.936 384 384S724.064 768 512 768 128 596.0640000000001 128 384s171.936-384 384-384z m-90.496 266.976l294.112 294.144a31.936 31.936 0 0 0 45.28 0 31.936 31.936 0 0 0 0-45.248l-316.768-316.768a31.968 31.968 0 0 0-45.184-0.064L263.04 334.94399999999996a31.872 31.872 0 0 0 0.064 45.184 32.096 32.096 0 0 0 45.184 0.064l113.216-113.216z"  horiz-adv-x="1024" />

    
    <glyph glyph-name="cuowu-fullcopy" unicode="&#59074;" d="M557.248 384l158.56-158.528a31.808 31.808 0 0 0-0.16-45.12 31.904 31.904 0 0 0-45.12-0.16L512 338.75199999999995l-158.528-158.56a31.808 31.808 0 0 0-45.12 0.16 31.904 31.904 0 0 0-0.16 45.12L466.752 384 308.16 542.528a31.808 31.808 0 0 0 0.16 45.12 31.904 31.904 0 0 0 45.12 0.16L512 429.248l158.528 158.56a31.808 31.808 0 0 0 45.12-0.16 31.904 31.904 0 0 0 0.16-45.12L557.248 384zM512-64C264.576-64 64 136.57600000000002 64 384S264.576 832 512 832s448-200.576 448-448-200.576-448-448-448z m0 64c212.064 0 384 171.936 384 384S724.064 768 512 768 128 596.0640000000001 128 384s171.936-384 384-384z"  horiz-adv-x="1024" />

    
    <glyph glyph-name="yiwencopy" unicode="&#59075;" d="M473.536 302.592v7.04c0 22.656 3.84 42.24 12.704 58.112 8.288 17.12 32.448 42.208 71.84 75.84l10.816 11.616c11.456 14.08 17.792 28.768 17.792 44.64 0 21.44-6.336 37.92-18.432 50.176-12.704 12.224-31.136 18.336-54.016 18.336-28.64 0-49.6-8.576-62.304-26.304-11.36-14.528-17.056-35.072-17.184-61.6a31.616 31.616 0 0 0 0.192-3.584c0-17.856-14.976-32.32-33.472-32.32-18.496 0-33.472 14.464-33.472 32.32a31.68 31.68 0 0 0 0.128 2.816H368c0 44.64 13.344 79.488 40.064 105.184 26.688 26.304 63.552 39.136 110.624 39.136 40.672 0 73.728-10.4 99.168-32.416 25.44-21.408 38.144-50.752 38.144-87.456 0-29.952-8.256-55.04-24.16-74.592-5.728-6.72-23.52-22.656-53.408-47.712a102.4 102.4 0 0 1-26.688-31.808 79.648 79.648 0 0 1-10.176-40.352v-10.4h-0.064c-0.8-17.504-15.712-31.456-34.016-31.456-18.784 0-34.016 14.72-34.016 32.896 0 0.64 0 1.28 0.064 1.92zM512-64C264.576-64 64 136.57600000000002 64 384S264.576 832 512 832s448-200.576 448-448-200.576-448-448-448z m0 64c212.064 0 384 171.936 384 384S724.064 768 512 768 128 596.0640000000001 128 384s171.936-384 384-384z m-4.768 231.456c13.344 0 24.8-3.68 33.696-12.224 8.896-7.968 13.344-18.368 13.344-31.2s-5.088-23.232-13.984-31.808a48.8 48.8 0 0 0-33.056-12.224c-12.704 0-24.16 4.288-33.056 12.832a41.664 41.664 0 0 0-13.344 31.2c0 12.832 4.448 23.232 13.344 31.2 8.896 8.544 20.352 12.224 33.056 12.224z"  horiz-adv-x="1024" />

    
    <glyph glyph-name="guanbi" unicode="&#59084;" d="M556.8 384l272 272c12.8 12.8 12.8 32 0 44.8-12.8 12.8-32 12.8-44.8 0L512 428.8 240 700.8c-12.8 12.8-32 12.8-44.8 0-12.8-12.8-12.8-32 0-44.8l272-272-272-272c-12.8-12.8-12.8-32 0-44.8 12.8-12.8 32-12.8 44.8 0l272 272 272-272c12.8-12.8 32-12.8 44.8 0 12.8 12.8 12.8 32 0 44.8L556.8 384z"  horiz-adv-x="1024" />

    
    <glyph glyph-name="yincang" unicode="&#59094;" d="M331.84 68.06399999999996l49.504 49.504C419.68 104.06399999999996 463.04 96 512 96c250.4 0 355.84 211.52 382.016 276.48a30.4 30.4 0 0 1 0 21.664c-11.84 29.984-39.84 89.6-90.112 145.984l44.736 44.736c58.24-64.8 90.816-133.28 104.928-167.072 8.576-22.08 8.576-45.536 0-67.584C922.4 275.58399999999995 801.408 32 512 32c-69.44 0-129.12 13.888-180.16 36.064z m-156.704 114.848c-58.24 64.864-90.56 133.44-104.704 167.296a91.968 91.968 0 0 0 0 67.584C101.6 492.416 221.248 736 512 736c69.312 0 128.96-13.952 180-36.224l-49.344-49.344C604.32 663.936 560.96 672 512 672 261.6 672 156.16 460.48 129.984 395.52a30.4 30.4 0 0 1 0-21.664c11.84-29.984 39.84-89.6 90.112-145.984l-44.96-44.96z m314.24 42.688l88.384 88.416a96.32 96.32 0 0 1 4.224 4.224l88.416 88.384c1.056-7.392 1.6-14.944 1.6-22.624 0-87.68-71.808-160-160-160-7.68 0-15.232 0.544-22.624 1.6z m-135.776 135.776A159.168 159.168 0 0 0 352 384c0 87.68 71.808 160 160 160 7.68 0 15.232-0.544 22.624-1.6l-181.024-181.024z m452.544 316.8a32 32 0 0 0 0-45.28l-543.04-543.04a32 32 0 0 0-45.248 45.248l543.04 543.04a32 32 0 0 0 45.248 0z"  horiz-adv-x="1024" />

    
    <glyph glyph-name="quanxian" unicode="&#59112;" d="M512.224-63.29600000000005C265.12-63.29600000000005 64 137.44000000000005 64 384.32 64 631.264 265.152 832 512.224 832c247.104 0 448.224-200.896 448.224-447.68 0-246.72-200.96-447.616-448.224-447.616z m0 837.536c-215.264 0-390.4-174.912-390.4-389.888 0-215.008 175.136-389.888 390.4-389.888 215.264 0 390.4 174.88 390.4 389.888 0 214.976-175.136 389.888-390.4 389.888z m92.384-669.728a133.312 133.312 0 0 0-105.536 214.848l0.736 1.024-240.704 240.416 85.056 84.768a28.8 28.8 0 0 0 20.48 8.448 28.8 28.8 0 0 0 29.024-28.96 28.16 28.16 0 0 0-8.48-20.32l-44-43.936 45.184-45.152 44 43.936a28.8 28.8 0 0 0 20.512 8.48 28.8 28.8 0 0 0 28.992-28.96 28.704 28.704 0 0 0-8.48-20.48l-44-43.936 117.888-117.76 0.896 0.448a134.016 134.016 0 0 0 58.72 13.504c35.68 0 69.12-13.824 94.4-39.04a132.544 132.544 0 0 0 39.104-94.304 131.968 131.968 0 0 0-39.104-94.272 134.72 134.72 0 0 0-94.72-38.752h0.032z m0 208.768a75.552 75.552 0 1 1 53.536-128.864 75.584 75.584 0 0 1-53.536 128.864z"  horiz-adv-x="1024" />

    
    <glyph glyph-name="caozuo-dianzan" unicode="&#59135;" d="M836.48 28.8l22.08 122.752c20.224 112.832 33.504 188.672 35.776 204.704 6.144 44.352-2.048 52.576-48.736 51.584-16.736-0.32-57.28-0.608-114.752-0.736-26.784-0.064-55.424-0.128-84.064-0.128h-38.208c-24.48 0-39.968 26.464-28.16 48.064 0.8 1.408 2.592 5.184 5.12 11.328 4.512 10.944 9.088 24.32 13.376 40 12.576 45.888 20.16 101.44 20.16 166.592 0 56.384-26.752 92.544-54.944 94.144-27.2 1.536-51.392-32-51.392-103.872 0-96.384-42.72-169.6-112.768-220.864a345.824 345.824 0 0 0-86.272-46.496v-394.976h517.728l5.056 27.872V28.8zM278.336-63.84H100.8C80.48-63.84 64-49.28 64-31.328V427.136c0 17.952 16.48 32.512 36.832 32.512h197.44l2.336 0.96a288.32 288.32 0 0 1 61.536 34.176c54.432 39.904 86.336 94.464 86.336 168.416 0 104.96 48.768 172.672 119.232 168.64 65.92-3.776 115.648-70.912 115.648-158.88 0-71.072-8.352-132.384-22.496-183.808-1.664-6.176-3.328-11.936-5.056-17.312 25.568 0 50.976 0.064 74.848 0.128v-0.032c56.96 0.128 97.44 0.32 113.6 0.704 84.544 1.792 125.664-39.52 113.696-125.44-2.4-17.344-15.584-92.416-36.16-207.232-9.696-54.176-19.424-108.32-29.248-162.496l-2.016-10.976-0.512-2.88c-2.976-16.416-16.32-27.616-31.808-27.616H281.568a32.32 32.32 0 0 0-3.232 0.16z m-28.928 64.96V394.688H137.6v-393.504h111.776z"  horiz-adv-x="1024" />

    
    <glyph glyph-name="caozuo-bianji" unicode="&#59136;" d="M707.872 606.4l-256.32-256.32 56.576-33.952 33.92-56.576 256.32 256.32-90.496 90.528z m45.28 45.248l90.496-90.496 22.624 22.624a32 32 0 0 1 0 45.248L821.024 674.24a32 32 0 0 1-45.248 0l-22.624-22.624z m-346.88-346.848l-15.168-15.2v-90.496h90.496l15.2 15.2-33.92 56.544-56.576 33.952zM843.68 742.144l90.496-90.496a64 64 0 0 0 0-90.496L508.16 135.104h-181.024v181.024L753.152 742.144a64 64 0 0 0 90.496 0zM576 800a32 32 0 0 0-32-32H160c-17.696 0-32-14.208-32-31.744v-704.512c0-17.184 14.336-31.744 32-31.744h704c17.696 0 32 14.208 32 31.744V288a32 32 0 0 0 64 0v-287.84C960-35.264 931.2-64 896.288-64H127.68C92.512-64 64-35.296 64 0.16V767.84C64 803.264 92.8 832 127.712 832H544a32 32 0 0 0 32-32z"  horiz-adv-x="1024" />

    
    <glyph glyph-name="fuhao-" unicode="&#59140;" d="M922.88 160.544c-13.184 0-24.672-6.624-31.296-16.544-28.384-38.464-70.624-71.168-127.008-98.144-57.088-27.296-127.872-40.96-212.384-40.96-79.008 0-151.04 13.12-216 39.36-65.024 26.208-114.688 66.816-149.024 121.76s-51.52 120.448-51.52 196.512c0 72.64 17.184 140.704 51.52 204.224 34.336 63.488 82.72 112.224 145.152 146.24 62.4 33.984 131.328 50.976 206.784 50.976 66.112 0 126.56-13.504 181.216-40.512 54.688-27.008 95.808-63.04 123.36-108.032a273.248 273.248 0 0 0 41.376-145.28c0-44.448-10.752-87.488-32.192-129.28-21.44-41.728-50.56-75.008-87.328-99.84-27.744-18.944-50.144-28.416-67.264-28.416a34.24 34.24 0 0 0-23.936 9.056 28.448 28.448 0 0 0-9.92 21.696c0 4.672 4.832 28.704 14.496 72.16l65.824 295.2h-0.128c0.608 2.752 0.96 5.6 0.96 8.512 0 22.4-18.88 40.576-42.176 40.576-20.16 0-36.96-13.664-41.12-31.872l-0.288 0.064-16.448-72.16c-18.368 28.864-40.32 50.336-65.792 64.48a163.264 163.264 0 0 1-80.32 21.184c-36.768 0-74.688-12.416-113.664-37.248-39.04-24.832-71.68-62.016-98.016-111.52-26.24-49.536-39.424-98.976-39.424-148.352 0-40 8.48-76.8 25.408-110.336 16.96-33.536 38.976-58.4 66.048-74.56 27.072-16.128 54.976-24.192 83.712-24.192 26.112 0 52.16 7.04 78.08 21.184a264.32 264.32 0 0 1 70.432 56.128c1.92-18.944 5.024-32.32 9.216-40.032 6.432-12.16 16.512-21.44 30.208-27.936 13.696-6.528 31.68-9.792 53.952-9.792 69.664 0 133.856 31.36 192.544 94.08 65.824 69.824 98.688 149.76 98.688 239.808 0 63.04-15.648 121.408-46.912 175.104-36.8 62.4-87.008 109.376-150.72 140.896C695.296 816.224 623.456 832 543.424 832c-103.2 0-191.008-22.4-263.424-67.072-72.416-44.704-128.32-109.12-167.616-193.28A502.944 502.944 0 0 1 64 355.104c0-67.968 13.536-131.296 40.64-189.984 21.6-46.272 53.696-87.136 96.256-122.72 42.56-35.52 94.112-62.144 154.592-79.84 60.48-17.696 126.496-26.56 198.08-26.56 77.76 0 144.192 9.888 199.36 29.6 55.136 19.712 102.72 46.496 142.72 80.32a422.848 422.848 0 0 1 57.024 57.44c0.16 0.192 0.16 0.384 0.288 0.608 4.384 5.888 7.04 13.056 7.04 20.832 0.064 19.712-16.608 35.744-37.12 35.744z m-322.304 183.584c-11.616-31.488-26.56-57.504-44.736-77.984-18.24-20.48-37.344-35.968-57.312-46.4-20.064-10.368-39.04-15.584-57.12-15.584-27.072 0-51.104 11.84-72.096 35.424-20.96 23.584-31.456 56.64-31.456 99.2 0 26.688 5.152 56 15.52 88 10.272 31.968 24 59.136 41.088 81.504 17.088 22.336 34.752 38.56 52.992 48.64a118.464 118.464 0 0 0 58.304 15.136c31.296 0 57.792-11.648 79.616-34.88 21.76-23.296 32.64-56.096 32.64-98.272 0-31.68-5.824-63.264-17.44-94.784z"  horiz-adv-x="1024" />

    
    <glyph glyph-name="fuhao-tongzhi" unicode="&#59164;" d="M544 766.4c161.696-16.032 288-152.48 288-318.4v-320h32a32 32 0 0 0 0-64h-224a128 128 0 1 0-256 0H160a32 32 0 0 0 0 64h32V448c0 165.92 126.304 302.368 288 318.4V800a32 32 0 0 0 64 0v-33.6zM768 128V448a256 256 0 1 1-512 0v-320H192z m-192-64h-128a64 64 0 1 1 128 0z"  horiz-adv-x="1024" />

    
    <glyph glyph-name="fuhao-liangduanduiqi" unicode="&#59165;" d="M96 704h832a32 32 0 0 0 0-64H96a32 32 0 1 0 0 64z m0-192h832a32 32 0 0 0 0-64H96a32 32 0 1 0 0 64z m0-192h832a32 32 0 0 0 0-64H96a32 32 0 0 0 0 64z m0-192h832a32 32 0 0 0 0-64H96a32 32 0 0 0 0 64z"  horiz-adv-x="1024" />

    
    <glyph glyph-name="fuhao-youduiqi" unicode="&#59166;" d="M96 704h832a32 32 0 0 0 0-64H96a32 32 0 1 0 0 64z m320-192h512a32 32 0 0 0 0-64H416a32 32 0 0 0 0 64zM96 320h832a32 32 0 0 0 0-64H96a32 32 0 0 0 0 64z m320-192h512a32 32 0 0 0 0-64H416a32 32 0 0 0 0 64z"  horiz-adv-x="1024" />

    
    <glyph glyph-name="fuhao-juzhongduiqi" unicode="&#59167;" d="M96 704h832a32 32 0 0 0 0-64H96a32 32 0 1 0 0 64z m160-192h512a32 32 0 0 0 0-64H256a32 32 0 1 0 0 64z m-160-192h832a32 32 0 0 0 0-64H96a32 32 0 0 0 0 64z m160-192h512a32 32 0 0 0 0-64H256a32 32 0 0 0 0 64z"  horiz-adv-x="1024" />

    
    <glyph glyph-name="fuhao-xiahuaxian" unicode="&#59168;" d="M237.152 677.28h-10.208c-25.504 0-43.04 3.36-52.608 10.08C164.8 694.08 160 705.824 160 722.624c0 15.552 4.032 27.008 12.128 34.336 8.064 7.36 20.16 11.04 36.32 11.04h159.424c34.432 0 47.712-28.16 47.712-45.376 0-16.8-16.64-45.344-47.68-45.344h-27.456v-153.28c0-46.592 2.24-80.512 6.72-101.728 4.48-21.216 11.776-40.64 21.984-58.272a155.552 155.552 0 0 1 62.176-59.84c26.56-14.304 56-21.44 88.32-21.44 60.8 0 105.12 18.08 132.96 54.176 27.84 36.16 41.76 94.528 41.76 175.168V677.28h-33.792c-33.152 0-51.52 28.16-51.52 45.344 0 17.248 8.8 45.376 36.864 45.376h171.52c15.328 0 26.88-3.776 34.752-11.328 7.872-7.584 11.808-18.912 11.808-34.048 0-16.8-4.672-28.544-14.016-35.264-9.376-6.72-26.368-10.08-51.04-10.08h-8.928v-179.104c0-102.048-23.04-178.592-69.184-229.632C674.72 217.504 605.312 192 512.64 192c-83.744 0-150.592 25.504-200.544 76.544-49.952 51.04-74.944 119.808-74.944 206.336V677.28zM240 96h544a48 48 0 0 0 0-96h-544a48 48 0 0 0 0 96z"  horiz-adv-x="1024" />

    
    <glyph glyph-name="fuhao-jiacu" unicode="&#59169;" d="M362.976 91.296h141.12c79.616 0 135.776 10.24 168.384 30.784 32.64 20.48 48.96 54.496 48.96 101.984 0 47.904-15.584 82.016-46.72 102.304-31.168 20.288-85.92 30.432-164.288 30.432h-147.456v-265.504z m0 345.152h132.832c60.16 0 104.768 9.728 133.76 29.12 29.056 19.456 43.552 49.44 43.552 90.048 0 38.4-13.12 67.872-39.392 88.384-26.272 20.48-64 30.752-113.12 30.752h-157.632v-238.304zM545.376 0H236.48c-14.816 0-25.92 3.872-33.344 11.648-7.424 7.776-11.136 19.424-11.136 34.976 0 17.28 15.04 44.672 50.24 44.672h20.96V674.752H242.24c-32.64 0-46.4 28.928-46.4 46.624 0 15.104 3.776 26.656 11.424 34.656 7.616 8 18.624 11.968 33.024 11.968h266.336c89.824 0 158.24-17.792 205.248-53.44 47.04-35.584 70.56-87.296 70.56-155.072 0-34.112-7.2-63.904-21.6-89.376-14.4-25.472-35.84-46.4-64.192-62.816 45.76-16.832 79.744-40.32 101.984-70.56 22.24-30.24 33.376-68.64 33.376-115.264 0-39.296-9.536-75.136-28.608-107.52-19.072-32.352-45.952-58.88-80.704-79.616a232.64 232.64 0 0 0-69.28-26.24c-25.408-5.408-61.44-8.096-108.032-8.096z"  horiz-adv-x="1024" />

    
    <glyph glyph-name="fuhao-huaxian" unicode="&#59170;" d="M559.456 448h-94.912V674.752H288.768c-7.04-62.24-12.64-96.32-16.832-102.208-6.336-8.832-18.688-13.28-37.056-13.28-14.304 0-25.024 4-32.16 12C195.584 579.264 192 591.008 192 606.528l7.36 116.16c0.8 15.968 4.896 27.52 12.224 34.624C218.944 764.48 230.4 768 245.888 768h532.224c15.52 0 26.944-3.552 34.304-10.688 7.36-7.104 11.2-18.656 11.616-34.656L832 605.248c0-15.552-3.872-27.104-11.648-34.656-7.744-7.552-19.392-11.328-34.88-11.328-16.32 0-27.584 4.448-33.696 13.28-4.096 5.888-9.6 40-16.544 102.208h-175.776V448z m0-192v-164.704h118.208c17.152 0 29.6-3.552 37.344-10.688 7.776-7.104 11.648-18.432 11.648-33.984 0-15.104-3.68-26.656-11.008-34.656-7.36-8-17.984-11.968-31.872-11.968H340.224c-13.888 0-24.512 4-31.872 11.968-7.36 8-11.008 19.52-11.008 34.656 0 16 3.968 27.424 11.936 34.336 7.968 6.88 21.536 10.336 40.736 10.336h114.528V256h94.912zM240 448h544a48 48 0 0 0 0-96h-544a48 48 0 0 0 0 96z"  horiz-adv-x="1024" />

    
    <glyph glyph-name="fuhao-zuoduiqi" unicode="&#59171;" d="M96 704h832a32 32 0 0 0 0-64H96a32 32 0 1 0 0 64z m0-192h512a32 32 0 0 0 0-64H96a32 32 0 1 0 0 64z m0-192h832a32 32 0 0 0 0-64H96a32 32 0 0 0 0 64z m0-192h512a32 32 0 0 0 0-64H96a32 32 0 0 0 0 64z"  horiz-adv-x="1024" />

    
    <glyph glyph-name="zihao" unicode="&#59172;" d="M711.328 160.032l-33.792-92.8a32 32 0 0 0-60.16 21.888l130.368 358.08a31.968 31.968 0 0 0 42.016 21.888c10.208-3.712 17.376-12.096 19.968-21.856l130.336-358.08a32 32 0 0 0-60.16-21.92l-33.76 92.8H711.36z m23.264 64h88.256l-44.128 121.28L734.592 224zM234.752 320h202.496L336 598.144 234.752 320z m-23.296-64L144.64 72.352a32 32 0 0 0-60.128 21.888L303.36 695.68a32 32 0 0 0 32.64 20.96 32 32 0 0 0 32.64-20.96l218.88-601.408a32 32 0 0 0-60.16-21.888L460.576 256H211.456z"  horiz-adv-x="1024" />

    
    <glyph glyph-name="fuhao-ziti" unicode="&#59173;" d="M352 128h32.32c17.472 0 31.68-14.208 31.68-32a32 32 0 0 0-31.68-32H255.68A31.776 31.776 0 0 0 224 96a32 32 0 0 0 31.68 32H288V640H128v-31.68a32 32 0 1 0-64 0V671.68a32 32 0 0 0 9.44 22.912A31.488 31.488 0 0 0 96 704h447.936A31.84 31.84 0 0 0 576 672v-63.68a32 32 0 1 0-64 0V640h-160v-512z m448 0h32.32c17.472 0 31.68-14.208 31.68-32a32 32 0 0 0-31.68-32h-128.64a31.776 31.776 0 0 0-31.68 32 32 32 0 0 0 31.68 32H736v256h-96v-31.68a32 32 0 1 0-64 0v63.36a32 32 0 0 0 9.44 22.912A31.488 31.488 0 0 0 608 448h319.936A31.84 31.84 0 0 0 960 416v-63.68a32 32 0 1 0-64 0V384h-96v-256z"  horiz-adv-x="1024" />

    
    <glyph glyph-name="fuhao-dagangshu" unicode="&#59174;" d="M128 800h512a64 64 0 0 0 64-64v-64a64 64 0 0 0-64-64H128a64 64 0 0 0-64 64V736a64 64 0 0 0 64 64z m32-64a32 32 0 1 1 0-64h448a32 32 0 0 1 0 64H160z m224-576h512a64 64 0 0 0 64-64v-64a64 64 0 0 0-64-64H384a64 64 0 0 0-64 64v64a64 64 0 0 0 64 64z m32-64a32 32 0 0 1 0-64h448a32 32 0 0 1 0 64H416z m-32 384h512a64 64 0 0 0 64-64v-64a64 64 0 0 0-64-64H384a64 64 0 0 0-64 64v64a64 64 0 0 0 64 64z m32-64a32 32 0 0 1 0-64h448a32 32 0 0 1 0 64H416z"  horiz-adv-x="1024" />

    
    <glyph glyph-name="fanyi-full" unicode="&#59178;" d="M640 480h256c35.36 0 64-28.48 64-64v-416c0-35.36-28.48-64-64-64H480c-35.36 0-64 28.48-64 64V256h128c53.312 0 96 42.976 96 96V480zM64 768c0 35.36 28.48 64 64 64h416c35.36 0 64-28.48 64-64v-416c0-35.36-28.48-64-64-64H128c-35.36 0-64 28.48-64 64V768z m128-276.256h46.72v24.768h67.392V398.24h49.504V516.512h68.768v-20.64h50.88V652.64H355.616v34.368c0 10.08 1.376 18.784 4.16 26.112a10.56 10.56 0 0 1 1.344 4.16c0 0.896-3.2 1.792-9.6 2.72h-46.816v-67.36H192v-160.896z m46.72 122.368h67.392v-60.48h-67.36V614.08z m185.664-60.48h-68.768V614.08h68.768v-60.48z m203.84-488l19.264 53.632h100.384l19.264-53.632h54.976L732.736 320h-64.64L576 65.6h52.256z m33.024 96.256l37.12 108.608h1.376l34.368-108.608h-72.864zM896 576h-64a128 128 0 0 1-128 128v64a192 192 0 0 0 192-192zM128 192h64a128 128 0 0 1 128-128v-64a192 192 0 0 0-192 192z"  horiz-adv-x="1024" />

    
    <glyph glyph-name="zhixiang-houtui" unicode="&#59184;" d="M173.504 512H640v-64H173.088l126.656-126.624a32 32 0 1 0-45.28-45.248l-181.088 181.024a31.904 31.904 0 0 0 0 45.248l181.12 181.024a32 32 0 0 0 45.248-45.248L173.504 512zM960 192c0 176.736-143.264 320-320 320v-64a256 256 0 0 0 256-256h64z m0 0h-64v-96a32 32 0 0 1 64 0v96z"  horiz-adv-x="1024" />

    
    <glyph glyph-name="zhixiang-qianjin" unicode="&#59185;" d="M850.496 512H384v-64h466.912l-126.656-126.624a32 32 0 1 1 45.28-45.248l181.088 181.024a31.904 31.904 0 0 1 0 45.248l-181.12 181.024a32 32 0 0 1-45.248-45.248L850.496 512zM64 192c0 176.736 143.264 320 320 320v-64a256 256 0 0 1-256-256H64z m0 0h64v-96a32 32 0 0 0-64 0v96z"  horiz-adv-x="1024" />

    
    <glyph glyph-name="fuhao-huizhi" unicode="&#59187;" d="M254.4 813.376L82.624 641.6a60.704 60.704 0 0 1 0-85.92L254.4 384l128.8 128.8-42.88 42.88-85.92-85.888-42.88 42.88 85.888 85.92-42.88 42.88-85.92-85.888-42.88 42.88 171.776 171.84 171.584-171.616L512 641.6l-171.776 171.84a60.576 60.576 0 0 1-85.76 0z m644.096-644.064l-171.808-171.808-42.88 42.912 85.888 85.888-42.88 42.88-85.92-85.856-42.88 42.88 85.888 85.888-42.912 42.912L512 126.4l171.776-171.776a60.704 60.704 0 0 1 85.92 0l171.776 171.776a60.704 60.704 0 0 1 0 85.92L769.6 384l-42.912-42.88 171.808-171.808zM680.8 684.672l131.968-131.872-43.968-44L636.8 640.8l44 43.872zM240.96 245.024l131.968-131.872-44-44-131.968 131.872 44 44zM680.704 772.576a124.544 124.544 0 0 0 176.288-0.096l43.584-43.52a124.704 124.704 0 0 0 0.096-176.16L355.264 7.584l-268.352-48.384 48.384 268.288L680.704 772.576zM334.4 74.656L857.472 597.344c23.84 23.872 23.552 63.264-0.8 87.52L813.12 728.384c-24.544 24.544-63.552 24.832-87.584 0.8L202.432 206.4l-27.52-159.424 159.52 27.616z"  horiz-adv-x="1024" />

    
    <glyph glyph-name="shiwu-maikefeng" unicode="&#59189;" d="M544 0h128a32 32 0 0 0 0-64H352a32 32 0 0 0 0 64h128v65.44C300.576 81.6 160 232.384 160 416a32 32 0 0 0 64 0 288 288 0 0 1 576 0 32 32 0 0 0 64 0c0-183.616-140.576-334.4-320-350.56V0zM512 832a224 224 0 0 0 224-224v-192a224 224 0 0 0-448 0V608a224 224 0 0 0 224 224z m0-64a160 160 0 0 1-160-160v-192a160 160 0 0 1 320 0V608a160 160 0 0 1-160 160z"  horiz-adv-x="1024" />

    
    <glyph glyph-name="caozuo-quanping-shousuo" unicode="&#59194;" d="M370.752 288L129.6 46.848a32 32 0 0 1 45.248-45.248L416 242.752V128a32 32 0 0 1 64 0v192a31.904 31.904 0 0 1-32 32H256a32 32 0 0 1 0-64h114.752z m182.624 137.376A31.904 31.904 0 0 0 544 448V640a32 32 0 0 0 64 0v-114.752l241.152 241.152a32 32 0 1 0 45.248-45.248L653.248 480H768a32 32 0 0 0 0-64h-192a31.904 31.904 0 0 0-22.624 9.376z"  horiz-adv-x="1024" />

    
    <glyph glyph-name="caozuo-quanping-zhankai" unicode="&#59195;" d="M818.752 736l-241.152-241.152a32 32 0 0 1 45.248-45.248L864 690.752V576a32 32 0 0 1 64 0V768a31.904 31.904 0 0 1-32 32h-192a32 32 0 0 1 0-64h114.752zM105.376-22.624A31.904 31.904 0 0 0 96 0v192a32 32 0 0 0 64 0v-114.752l241.152 241.152a32 32 0 0 0 45.248-45.248L205.248 32H320a32 32 0 0 0 0-64H128a31.904 31.904 0 0 0-22.624 9.376z"  horiz-adv-x="1024" />

    
    <glyph glyph-name="caozuo-quanping-zhankai1" unicode="&#59196;" d="M600.224 517.504L818.752 736H704a32 32 0 0 0 0 64h192a31.904 31.904 0 0 0 32-32v-192a32 32 0 0 0-64 0V690.752l-218.496-218.528a160.864 160.864 0 0 1-45.28 45.28z m45.28-221.76L864 77.28V192a32 32 0 0 0 64 0v-192a31.904 31.904 0 0 0-32-32h-192a32 32 0 0 0 0 64h114.752l-218.528 218.496a160.864 160.864 0 0 1 45.28 45.28z m-221.76-45.248L205.28 32H320a32 32 0 0 0 0-64H128a31.904 31.904 0 0 0-32 32v192a32 32 0 0 0 64 0v-114.752l218.496 218.528a160.864 160.864 0 0 1 45.28-45.28z m-45.248 221.76L160 690.72V576a32 32 0 0 0-64 0V768a31.904 31.904 0 0 0 32 32h192a32 32 0 0 0 0-64H205.248l218.528-218.496a160.864 160.864 0 0 1-45.28-45.28z"  horiz-adv-x="1024" />

    
    <glyph glyph-name="caozuo-quanping-shousuo1" unicode="&#59197;" d="M685.248 256l211.424-211.424-45.248-45.248L640 210.752V96a32 32 0 0 0-64 0v192a31.904 31.904 0 0 0 32 32h192a32 32 0 0 0 0-64h-114.752z m-346.496 0l-211.424-211.424 45.248-45.248L384 210.752V96a32 32 0 0 1 64 0v192a31.904 31.904 0 0 1-32 32H224a32 32 0 0 1 0-64h114.752z m0 256L127.328 723.424 172.576 768.64 384 557.248V672a32 32 0 0 0 64 0v-192a31.904 31.904 0 0 0-32-32H224a32 32 0 0 0 0 64h114.752z m346.496 0l211.424 211.424-45.248 45.248L640 557.248V672a32 32 0 0 1-64 0v-192a31.904 31.904 0 0 1 32-32h192a32 32 0 0 1 0 64h-114.752z"  horiz-adv-x="1024" />

    
    <glyph glyph-name="fuhao-shizhong-line" unicode="&#59198;" d="M544 401.6l152.48-88.032a31.872 31.872 0 0 0 11.616-43.68c-8.832-15.296-28.544-20.48-43.616-11.776l-166.464 96.096a31.968 31.968 0 0 0-8.288 6.88 31.776 31.776 0 0 0-9.728 22.752v256.32c0 17.6 14.208 31.84 32 31.84 17.664 0 32-14.592 32-31.84v-238.592zM512 800c229.504 0 416-186.496 416-416s-186.496-416-416-416S96 154.496 96 384 282.496 800 512 800z m0-768c194.304 0 352 157.696 352 352S706.304 736 512 736 160 578.304 160 384s157.696-352 352-352z"  horiz-adv-x="1024" />

    
    <glyph glyph-name="quanxianshenyue" unicode="&#59223;" d="M848 176V224c0 53.024-26.976 80-80 80s-80-26.976-80-80v-48h160z m-224-175.904a16 16 0 0 1 15.872-16.096h256.256a16.096 16.096 0 0 1 15.872 16.096v127.808l-288 0.096v-127.904zM576-32.096V160a16 16 0 0 0 16 16H640V224a128 128 0 1 0 256 0v-48h48c8.832 0 16-7.104 16-16v-192.096a32 32 0 0 0-32.064-31.904h-319.872A32 32 0 0 0 576-32.096z m208 60.736a16 16 0 0 0-32 0V64h-16.16a16 16 0 0 0 0 32h64.32a16 16 0 0 0 0-32H784v-35.36zM371.872 361.664A256 256 0 1 0 767.84 576a256 256 0 0 0-255.936-256C299.872 320 128 148.064 128-64H64c0 198.528 129.088 366.88 307.872 425.664zM511.904 384a192 192 0 0 1 191.968 192 192 192 0 1 1-191.968-192z"  horiz-adv-x="1024" />

    
    <glyph glyph-name="zidongqingli" unicode="&#59224;" d="M448 448H224a32 32 0 0 1-32-32v-64a32 32 0 0 1 32-32h576a32 32 0 0 1 32 32v64a32 32 0 0 1-32 32h-224V736a32 32 0 0 1-32 32h-64a32 32 0 0 1-32-32v-288z m-64 64V768a64 64 0 0 0 64 64h128a64 64 0 0 0 64-64v-256h192a64 64 0 0 0 64-64v-128a64 64 0 0 0-64-64v-256a64 64 0 0 0-64-64H256a64 64 0 0 0-64 64v256a64 64 0 0 0-64 64v128a64 64 0 0 0 64 64h192z m384-256H256v-224a32 32 0 0 1 32-32h448a32 32 0 0 1 32 32v224z m-96-64a32 32 0 0 0 32-32v-160h-64v160a32 32 0 0 0 32 32z m-128-64a32 32 0 0 0 32-32v-96h-64v96a32 32 0 0 0 32 32z m-128-64a32 32 0 0 0 32-32v-32h-64v32a32 32 0 0 0 32 32z"  horiz-adv-x="1024" />

    
    <glyph glyph-name="cuiban" unicode="&#59248;" d="M384 670.016V704a32 32 0 0 0 64 0v-33.984c126.272-15.744 224-123.456 224-254.016v-352h64a32 32 0 0 0 0-64h-256a64 64 0 1 0-128 0H96a32 32 0 0 0 0 64h64V416a256.032 256.032 0 0 0 224 254.016zM224 64h384V416a192 192 0 1 1-384 0v-352z m736 512a32 32 0 0 0-64 0 192 192 0 0 1-192 192 32 32 0 0 0 0 64 256 256 0 0 0 256-256z m-128-32a32 32 0 0 0-64 0 96 96 0 0 1-96 96 32 32 0 0 0 0 64 160 160 0 0 0 160-160z"  horiz-adv-x="1024" />

    
    <glyph glyph-name="jianqie" unicode="&#59264;" d="M630.24 277.44000000000005L232.224 737.44a42.4 42.4 0 0 0 4.8 60.224 43.712 43.712 0 0 0 61.152-4.896l401.92-464.48c74.016 31.2 162.368 12.576 216.32-51.744 66.432-79.136 55.648-197.504-24.064-264.384-79.68-66.88-198.144-56.96-264.544 22.208-59.84 71.296-56.992 174.432 2.432 243.072z m60.256-27.2a124.064 124.064 0 0 1-43.968-94.784c0-68.864 56.224-124.704 125.6-124.704 69.344 0 125.568 55.84 125.568 124.704 0 68.864-56.224 124.704-125.568 124.704-22.752 0-44.096-6.016-62.496-16.512a42.688 42.688 0 0 0-5.6-5.696c-4.16-3.456-8.736-6.016-13.536-7.744z m-226.048 78.88l-57.344-66.272a44.48 44.48 0 0 0-1.12-1.216c47.232-67.936 45.568-161.28-9.824-227.264-66.4-79.136-184.864-89.088-264.544-22.208-79.712 66.88-90.496 185.28-24.096 264.384 58.496 69.728 157.408 85.76 234.592 42.816l57.792 66.784a128.48 128.48 0 0 1 64.544-57.024z m158.4 183.04a128.448 128.448 0 0 1-65.728 55.68l194.656 224.96a43.712 43.712 0 0 0 61.152 4.864 42.4 42.4 0 0 0 4.8-60.224l-194.88-225.28zM171.648 59.936000000000035c53.12-44.576 132.096-37.952 176.352 14.784 44.288 52.768 37.12 131.68-16.032 176.256-53.12 44.576-132.096 37.952-176.384-14.784-44.256-52.768-37.056-131.68 16.064-176.256z"  horiz-adv-x="1024" />

    
    <glyph glyph-name="qiehuan" unicode="&#59273;" d="M734.56 319.96799999999996a29.344 29.344 0 0 0 17.44-4.736c7.68-4.928 12.832-12.896 14.944-21.728a38.56 38.56 0 0 0-3.2-26.88l-96-120.832c-8.864-17.024-28.448-22.848-43.744-13.024s-20.544 31.584-11.712 48.608l54.4 68.48H291.104a35.072 35.072 0 1 0 0 70.144h441.856l1.632-0.032zM289.44 448a29.344 29.344 0 0 0-17.44 4.736 35.264 35.264 0 0 0-14.944 21.728 38.56 38.56 0 0 0 3.2 26.88l96.032 120.832c8.832 17.024 28.416 22.848 43.712 13.024 15.296-9.824 20.544-31.584 11.712-48.608l-54.4-68.48h375.616a35.072 35.072 0 1 0 0-70.144H291.072l-1.6 0.032zM64 768.3199999999999C64 803.488 92.8 832 127.712 832H896.32C931.488 832 960 803.2 960 768.288V-0.32000000000005c0-35.2-28.8-63.712-63.712-63.712H127.68C92.512-64 64-35.200000000000045 64-0.2880000000000109V768.3199999999999z m64-32.32v-703.936A32 32 0 0 1 160 0h704a32 32 0 0 1 32 32V736a32 32 0 0 1-32 32H160a32 32 0 0 1-32-32z"  horiz-adv-x="1024" />

    
    <glyph glyph-name="biaoge" unicode="&#58989;" d="M896 768h-768c-35.2 0-64-28.8-64-64v-640c0-35.2 28.8-64 64-64h768c35.2 0 64 28.8 64 64v640c0 35.2-28.8 64-64 64zM352 64h-224v160h224v-160zM352 288h-224v160h224v-160zM352 512h-224v160h224v-160zM608 64h-192v160h192v-160zM608 288h-192v160h192v-160zM608 512h-192v160h192v-160zM896 64h-224v160h224v-160zM896 288h-224v160h224v-160zM896 512h-224v160h224v-160z"  horiz-adv-x="1024" />

    
    <glyph glyph-name="shipin" unicode="&#59000;" d="M892.8 768h-761.6c-19.2 0-35.2-6.4-48-22.4-12.8-12.8-19.2-32-19.2-54.4v-611.2c0-44.8 28.8-80 67.2-80h761.6c19.2 0 35.2 6.4 48 22.4s19.2 35.2 19.2 54.4v614.4c0 41.6-32 76.8-67.2 76.8zM224 64h-51.2c-25.6 0-44.8 22.4-44.8 51.2v140.8h96v-192zM224 320h-96v128h96v-128zM224 512h-96v140.8c0 28.8 19.2 51.2 44.8 51.2h51.2v-192zM736 480v-416h-448v640h448v-224zM896 115.2c0-28.8-19.2-51.2-44.8-51.2h-51.2v192h96v-140.8zM896 320h-96v128h96v-128zM896 512h-96v192h54.4c22.4 0 41.6-22.4 41.6-51.2v-140.8zM444.8 268.8l144 73.6 25.6 12.8c32 16 32 41.6 0 57.6l-169.6 86.4c-16 6.4-28.8 0-28.8-16v-192c0-22.4 12.8-28.8 28.8-22.4z"  horiz-adv-x="1024" />

    
    <glyph glyph-name="sousuo1" unicode="&#59001;" d="M741.216 200.03200000000004l192.896-192.864a31.968 31.968 0 1 0-45.28-45.28L695.968 154.784A382.464 382.464 0 0 0 448 64C235.936 64 64 235.93600000000004 64 448S235.936 832 448 832s384-171.936 384-384c0-94.528-34.144-181.056-90.784-247.968zM448 128c176.736 0 320 143.264 320 320S624.736 768 448 768 128 624.736 128 448s143.264-320 320-320z"  horiz-adv-x="1024" />

    
    <glyph glyph-name="fujian" unicode="&#59012;" d="M595.2 512c12.8 12.8 12.8 35.2 0 48s-35.2 12.8-48 0l-220.8-214.4c-25.146-23.694-40.804-57.219-40.804-94.4s15.658-70.706 40.739-94.339c54.465-51.261 144.065-51.261 198.465-0.061l345.6 332.8c80 80 80 204.8 0 284.8s-214.4 80-294.4 0l-400-380.8c-108.8-105.6-108.8-275.2 0-380.8s284.8-105.6 393.6 0l220.8 214.4c12.8 12.8 12.8 35.2 0 48s-35.2 12.8-48 0l-220.8-214.4c-80-80-214.4-80-294.4 0s-80 204.8 0 284.8l393.6 380.8c54.4 51.2 144 51.2 198.4 0s54.4-137.6 0-188.8l-345.6-332.8c-25.6-25.6-70.4-25.6-99.2 0-25.6 25.6-25.6 67.2 0 96l220.8 211.2z"  horiz-adv-x="1024" />

    
    <glyph glyph-name="paixu-jiangxu" unicode="&#59013;" d="M771.104 203.584v435.968c0.003 0.15 0.004 0.326 0.004 0.504 0 8.811-3.682 16.761-9.592 22.397-6.196 5.915-14.592 9.548-23.837 9.548-0.062 0-0.123-0-0.185-0-18.614-0.32-33.558-14.784-33.558-32.448v-435.968l-134.304 127.296c-6.091 5.976-14.444 9.664-23.659 9.664-0.064 0-0.127-0-0.19-0.001-9.014 0-17.622-3.488-23.862-9.664-6.092-5.663-9.898-13.715-9.92-22.655 0-8.449 3.584-16.577 9.92-22.529l190.080-180.128c6.176-6.080 14.656-9.504 23.52-9.536 8.896-0.32 17.568 2.624 24.192 8.256l190.080 180.128c6.258 5.578 10.186 13.655 10.208 22.65-0.050 8.949-4.008 17.021-10.264 22.556-6.149 5.805-14.495 9.387-23.678 9.387-0.049 0-0.097-0-0.146-0-8.953 0-17.529-3.392-23.833-9.408l-130.976-126.016zM88.864 160h398.24c13.76 0 24.896-14.176 24.896-31.68 0-17.504-11.136-31.68-24.896-31.68h-398.208c-13.76-0-24.896 14.176-24.896 31.68 0 17.504 11.136 31.68 24.896 31.68zM90.656 416h266.688c14.72 0 26.656-14.176 26.656-31.68 0-17.504-11.936-31.68-26.656-31.68h-266.688c-14.72 0-26.656 14.176-26.656 31.68 0 17.504 11.936 31.68 26.656 31.68zM487.136 672h-398.272c-13.728 0-24.864-14.176-24.864-31.68 0-17.504 11.136-31.68 24.896-31.68h398.208c13.76 0 24.896 14.176 24.896 31.68 0 17.504-11.136 31.68-24.896 31.68z"  horiz-adv-x="1024" />

    
    <glyph glyph-name="renyuansousuo" unicode="&#59014;" d="M768 576c0 140.8-115.2 256-256 256S256 716.8 256 576c0-89.6 44.8-169.6 115.2-214.4C192 304 64 134.39999999999998 64-64h64c0 211.2 172.8 384 384 384 140.8 0 256 115.2 256 256zM512 384c-105.6 0-192 86.4-192 192s86.4 192 192 192 192-86.4 192-192-86.4-192-192-192z m371.2-326.4C912 89.60000000000002 928 131.20000000000005 928 176c0 96-80 176-176 176s-176-80-176-176 80-176 176-176c28.8 0 57.6 6.4 80 19.2l73.6-73.6c12.8-12.8 32-12.8 44.8 0 12.8 12.8 12.8 32 0 44.8l-67.2 67.2z m-134.4 9.6c-60.8 0-112 51.2-112 112s51.2 112 112 112 112-51.2 112-112c0-64-48-112-112-112z"  horiz-adv-x="1024" />

    
    <glyph glyph-name="paixu-shengxu" unicode="&#59015;" d="M771.104 564.416v-435.968c0.003-0.15 0.004-0.326 0.004-0.504 0-8.811-3.682-16.761-9.592-22.397-6.316-6.092-14.956-9.548-24.012-9.548-18.624 0.32-33.568 14.784-33.568 32.448v435.968l-134.304-127.296c-6.091-5.976-14.444-9.664-23.659-9.664-0.064 0-0.127 0-0.19 0.001-9.014-0-17.622 3.488-23.862 9.664-6.092 5.663-9.898 13.715-9.92 22.655 0 8.449 3.584 16.577 9.92 22.529l190.080 180.128c6.176 6.080 14.656 9.504 23.52 9.536 8.896 0.32 17.568-2.624 24.192-8.256l190.080-180.128c6.258-5.578 10.186-13.655 10.208-22.65-0.050-8.949-4.008-17.021-10.264-22.556-6.149-5.805-14.495-9.387-23.678-9.387-0.049 0-0.097 0-0.146 0-0.033-0-0.082-0-0.131-0-9.183 0-17.529 3.582-23.719 9.424l-130.959 126zM88.864 160h398.24c13.76 0 24.896-14.176 24.896-31.68 0-17.504-11.136-31.68-24.896-31.68h-398.208c-13.76-0-24.896 14.176-24.896 31.68 0 17.504 11.136 31.68 24.896 31.68zM90.656 416h266.688c14.72 0 26.656-14.176 26.656-31.68 0-17.504-11.936-31.68-26.656-31.68h-266.688c-14.72 0-26.656 14.176-26.656 31.68 0 17.504 11.936 31.68 26.656 31.68zM487.136 672h-398.272c-13.728 0-24.864-14.176-24.864-31.68 0-17.504 11.136-31.68 24.896-31.68h398.208c13.76 0 24.896 14.176 24.896 31.68 0 17.504-11.136 31.68-24.896 31.68z"  horiz-adv-x="1024" />

    
    <glyph glyph-name="ren" unicode="&#59016;" d="M652.8 361.6C723.2 406.4 768 486.4 768 576c0 140.8-115.2 256-256 256S256 716.8 256 576c0-89.6 44.8-169.6 115.2-214.4C192 304 64 134.39999999999998 64-64h64c0 211.2 172.8 384 384 384s384-172.8 384-384h64c0 198.4-128 368-307.2 425.6zM512 384c-105.6 0-192 86.4-192 192s86.4 192 192 192 192-86.4 192-192-86.4-192-192-192z"  horiz-adv-x="1024" />

    
    <glyph glyph-name="renyuanzengjia" unicode="&#59017;" d="M928 160H800V288c0 16-12.8 32-32 32s-32-12.8-32-32v-128H608c-16 0-32-12.8-32-32s12.8-32 32-32h128v-128c0-16 12.8-32 32-32s32 12.8 32 32V96h128c16 0 32 12.8 32 32s-12.8 32-32 32zM768 576c0 140.8-115.2 256-256 256S256 716.8 256 576c0-89.6 44.8-169.6 115.2-214.4C192 304 64 134.39999999999998 64-64h64c0 211.2 172.8 384 384 384 140.8 0 256 115.2 256 256zM512 384c-105.6 0-192 86.4-192 192s86.4 192 192 192 192-86.4 192-192-86.4-192-192-192z"  horiz-adv-x="1024" />

    
    <glyph glyph-name="icon_play" unicode="&#58900;" d="M897.143467 298.948267l-464.648534-311.5264c-46.976-31.488-110.592-18.944-142.08 28.023466A102.4 102.4 0 0 0 273.066667 72.47360000000003V695.5264c0 56.5504 45.8496 102.4 102.4 102.4a102.4 102.4 0 0 0 57.028266-17.348267l464.64-311.5264c46.976-31.488 59.528533-95.104 28.032-142.08a102.4 102.4 0 0 0-28.023466-28.023466z"  horiz-adv-x="1024" />

    
    <glyph glyph-name="juhuasuan" unicode="&#58883;" d="M39.814963 32.329523c102.334874 17.396224 178.062746 52.18857 230.253568 81.864499 29.677158 17.396224 55.260877 35.815731 76.751155 55.258522l60.3776-66.514944c-70.611046-66.514944-293.701222-123.820032-348.962099-123.820032l-12.280218 33.769062C42.885018 19.026637 40.838349 25.166438 39.814963 32.329523L39.814963 32.329523zM804.256768 335.228211c-28.653773 35.815731-57.307546 62.421709-85.961318 90.05097-32.747213-21.489459-69.587763-42.978816-106.428314-63.444992 31.723827 8.18647 57.307546 15.349555 80.844595 24.559309 5.116723-12.279706 11.256832-24.559309 17.396941-36.839014 11.256832-20.466074 23.53705-44.002202 36.84055-59.351757-49.120768-9.209754-117.685146-17.396224-192.389632-24.559309 21.490381-25.582694 48.097382-51.165286 79.82121-74.701312 50.144154 15.349555 88.007987 46.048768 115.638477 71.631462 15.350272 15.349555 28.653773 30.699213 39.910605 47.072051l110.521754-66.514944c-18.420326-16.372941-37.863936-30.699213-58.330931-44.002202-35.817267-23.536026-81.867981-47.072051-129.965363-55.258522 53.214106-27.629261 114.615091-50.142003 183.179469-65.491558-12.280218-16.372941-23.53705-31.722496-34.793882-45.025485-19.44361-23.536026-37.863936-50.142003-49.120768-61.398323-138.152141 57.30519-221.043405 127.913267-269.140787 180.101939l0-172.938748-135.082088 0L407.197285 102.937696 407.197285 256.433626c-15.350272-1.023283-27.630387-2.046566-40.93399-2.046566l33.770496-34.792448c-29.677158-17.396224-61.400986-33.769062-97.21815-49.11872-61.400986-27.629261-145.315533-55.258522-240.487014-70.608077l-6.140109 26.605978c-4.09344 15.349555-8.186778 29.67593-11.256832 37.862298 83.91465 11.25632 169.875968 55.258522 222.06679 84.934451l-94.148096-3.069952c-13.303501-1.023283-25.583718-1.023283-36.84055-1.023283l-15.350272 66.514944c61.400986 1.023283 148.385587 5.116518 241.5104 14.326272l0 48.095391c-98.241536-11.25632-177.03936-22.512742-234.346906-33.769062-32.747213-6.139802-62.424269-12.279706-88.007987-18.419507l-38.887219 96.190771c31.723827 4.093235 67.541094 7.163187 105.404928 11.25632L106.332773 622.777245l-66.517695 0 0 70.608128 504.511131 0 0-23.536043c46.050714 7.163187 125.871923 15.349555 202.623181 14.326272 66.517709-1.023283 118.708531-16.372941 140.19881-39.908966 19.44361-21.489459 17.396941-49.11872-4.09344-82.887782-14.326886-20.466074-37.863936-44.002202-70.611046-69.584794 31.723827-21.489459 61.400986-44.002202 88.007987-67.538227-15.350272-15.349555-38.887219-35.815731-59.354214-55.258522L804.256768 335.228211zM219.924378 513.283482l142.245532 0 0 33.769105-142.245532 0L219.924378 513.283482zM219.924378 622.777242l0-30.699186 142.245532 0 0 30.699186L219.924454 622.777242zM219.924378 436.535501c49.120768 3.069952 98.241536 5.116518 142.245581 6.139802l0 24.559349-142.245532 0L219.924427 436.535517zM544.326042 439.605453c37.863936 13.302989 73.681101 28.652544 106.428314 44.002202-27.630387 20.466074-50.144154 35.815731-66.517709 47.072051l-26.607104 16.372941 48.097382 50.142003 38.887219-16.372941c24.560333-11.25632 58.330931-25.582694 95.171482-45.025485 17.396941 13.302989 30.700442 25.582694 39.910605 36.839014 10.233446 13.302989 12.280218 24.559309 5.116723 32.745779-7.163494 9.209754-25.583718 14.326272-50.144154 15.349555l-4.093397 0c-111.545037 0-199.553126-39.908966-199.553126-39.908966l-12.280218 41.955533-50.144108 0 0-177.031972c23.53705 0 39.910605 1.023283 53.214106 1.023283l20.466983 0 0-62.421678-73.681101-3.069952 0-44.002167c41.957274 5.116518 81.867981 12.279706 117.685146 19.44279L544.326042 439.605453zM1909.473894 163.312742c0-64.468275 5.116723-133.029786-34.793882-167.822234-54.237491-44.002202-189.319578-34.792448-227.183514-29.67593 13.303501 24.559309 16.373555 33.769062 27.630387 60.37504 47.074099 0 93.124813 16.372941 96.194867 70.608077L1771.321754 680.082392l138.152135 0L1909.473889 163.312762zM1390.635827 76.331725c35.817267-24.559309 75.727872-32.745779 107.451699-33.769062 17.396941-1.023283 35.817267 0 53.214106 3.069952l-1.023386-84.934451c-31.723827 4.093235-62.424269 8.18647-90.054758 13.302989-48.097382 8.18647-103.358259 17.396224-130.988646 28.652544-13.303501 4.093235-23.53705 7.163187-34.793882 14.326272-41.957274-17.396224-95.171482-33.769062-161.68919-45.025485l-33.770496 66.514944c50.144154 7.163187 94.148096 18.419507 129.965363 33.769062-33.770496 41.955533-50.144154 93.120819-58.330931 134.053069-5.116723 23.536026-7.163494 47.072051-8.186778 70.608077l-2.046669 148.379443-116.66176-8.18647-6.140109 99.260723 119.731814 3.069952-3.070054 151.449293 142.245581-1.023283c-1.023386-13.302989-1.023386-27.629261-1.023386-42.978816l0-104.377232 229.230182 5.116518 6.140109-76.747981-234.346906-16.372941c1.023386-69.584794 2.046669-134.053069 5.116723-173.962035 3.070054-44.002202 12.280218-78.794547 24.560333-106.423808 11.256832 21.489459 19.44361 46.048768 22.513664 74.701312 4.09344 46.048768 6.140109 91.074253 7.163494 124.843315 1.023386 19.44279 1.023386 38.885683 1.023386 56.281805l132.012032 1.023283-13.303501-96.190771c-7.163494-52.18857-16.373555-106.423808-21.490381-129.959936C1444.873318 144.893235 1426.453197 109.077504 1390.635827 76.331725L1390.635827 76.331725zM1707.874202 146.939904l-120.7552 0L1587.119002 597.19459l120.7552 0L1707.874202 146.939863zM1432.593101 561.378918c-48.097382 0-85.961318 31.722496-85.961318 71.631462s37.863936 70.608077 85.961318 70.608077 86.984704-30.699213 86.984704-70.608077S1480.690688 561.378918 1432.593101 561.378918L1432.593101 561.378918zM2748.620288 183.778918l168.85261 0 0-67.538209-168.85261 0 0-144.286174-136.105437 0L2612.514851 116.240677l-205.693179 0c-24.560333-75.724698-93.124813-137.123021-293.701222-150.42601l-32.747213 61.398323c125.871923 5.116518 176.016077 35.815731 192.389632 89.027686l-205.693179 0 0 67.538209 213.879972 0 0 30.699186-40.933966 0-94.148122 0L2145.867574 523.516544l108.47501 0c-19.44361 17.396224-41.957274 34.792448-59.354214 48.095437-31.723827-31.722496-69.587763-60.37504-107.451699-75.724698l-17.396941 13.302989c-13.303501 9.209754-27.630387 17.396224-44.004045 25.582694 39.910605 27.629261 69.587763 70.608077 89.031373 106.423808 11.256832 21.489459 21.490381 42.978816 28.653773 65.491558l129.965363-38.885683-4.09344-7.163187-13.303501-19.44279c53.214106 7.163187 132.012032 11.25632 221.043405 2.046566-7.163494-13.302989-13.303501-28.652544-18.420326-40.93225l-9.210163-21.489459c-65.494323 8.18647-117.685146 11.25632-161.68919 11.25632 27.630387-19.44279 46.050714-32.745779 56.28416-40.93225 7.163494-5.116518 12.280218-10.233037 16.373555-14.326272l-73.681101-33.769062 0-4.093225c16.373555 1.023283 33.770496 3.069952 53.214106 6.139802 32.747213 3.069952 78.797926 8.18647 132.012032 12.279706-7.163494 3.069952-15.350272 8.18647-23.53705 11.25632 39.910605 28.652544 67.541094 73.678029 86.984704 113.586995 11.256832 22.512742 21.490381 46.048768 28.653773 71.631462l127.918694-46.048768-3.070054-4.093235c-3.070054-3.069952-5.116723-7.163187-8.186778-12.279706 63.447654 5.116518 155.549082 8.18647 237.41696 3.069952-7.163494-13.302989-14.326886-28.652544-19.44361-44.002202l-8.186778-25.582694c-72.657818 8.18647-135.082086 11.25632-187.272909 10.233037 28.653773-19.44279 49.120768-31.722496 61.400986-40.93225l18.420326-14.326272-34.793882-17.396224c74.704486-11.25632 105.404928-44.002202 105.404928-97.214054l0-48.095391c0-85.957734 8.186778-162.705715-105.404928-162.705715L2748.620114 183.778886zM2650.37865 266.666701c35.817267 0 51.167437 14.326272 58.330931 29.67593l-421.619814-10.233037 0-19.442818 35.81722 0 19.443634 0L2650.378685 266.666776zM2287.089766 343.414682l427.759923 10.233037 0 24.559349-427.759923-10.233037L2287.089766 343.414653zM2615.584768 569.565286c-16.373555-16.372941-31.723827-32.745779-51.167437-46.048768 35.817267 3.069952 72.657818 2.046566 108.474982 3.069952C2653.448704 541.936026 2631.958426 558.308966 2615.584768 569.565286L2615.584768 569.565286zM2549.067059 466.21143c-69.587763-4.093235-135.082086-10.233037-183.179469-14.326272-27.630387-3.069952-54.237491-5.116518-78.797926-7.163187l0-19.442818 421.619814 11.25632C2694.382797 459.048243 2658.56553 471.327949 2549.067059 466.21143L2549.067059 466.21143zM2612.514816 183.778918l0 30.699186-193.412989 0c0-11.25632 0-19.44279-1.023386-30.699213L2612.514766 183.778892z"  horiz-adv-x="2919" />

    
    <glyph glyph-name="taoqianggou" unicode="&#58884;" d="M165.0919025 418.10081949L54.36848844-22.08952832l160.79481562 0 114.55377281 440.19034781L165.0919025 418.10081949zM353.34497 554.44952949l-192.32006531 38.94932531-15.55005-89.59427812 192.37621781-38.94932531L353.34497 554.44952949zM1552.38336969 506.1188348l94.67601937 143.23533188 44.6487375 0 68.9464425-143.23533188 159.2626725 0-81.19556625 218.02156688L1527.44393 724.14040168 1405.37383156 506.1188348 1552.38336969 506.1188348zM695.45007969 297.34627918l-37.08829313-214.25538188c-0.35696531-31.16828437-8.11394156-49.79064187-35.27137969-44.55648843l-24.50225812 0 55.22533875 305.55828093 160.79481562 0 12.80262 74.00813063-160.79481562 0 1.85301094 10.692915 4.90927594 28.26443156L834.16919938 457.05816699l12.80261999 74.01615188-306.27622218 0 18.24533812 38.9573475L409.63318344 570.03166637 355.61912 457.05816699l160.79481562 0-6.76228593-38.9573475L348.85683406 418.10081949l-12.80262-74.00813062 160.79481563 0-57.52355344-305.55828094L390.32497062 38.53440886999999l48.62348625 258.81187031L327.9202175 297.34627918l-55.33363125-319.43179688 424.957155 0c38.283525 0 58.80301312 15.57812625 61.67477906 46.74239907l47.25578719 272.68939781L695.45007969 297.34627918zM374.93936562 679.09860137l-192.32006531 38.96135812-15.55005-89.60229937 193.03800656-35.05880532L374.93936562 679.09860137zM1382.00664312 507.69509762l-39.65924531-7.7850525 15.80273344 99.58529531 36.75138187 0 12.25313438 74.78623406-36.75138188 0 12.25313438 49.86283781-183.76493063 0-12.25313437-49.86283781-110.25815625 0-12.25313438-74.78623406 110.25815625 0-24.50225812-149.59653375-115.84526531-27.89142281-25.70952282-102.85012407 115.74900469 27.26573063-37.69794187-263.33209406c-0.36097594-31.16828437-14.058015-44.19150094-41.21545313-38.9573475l-76.56705 0-11.48305219-66.22307813 222.04845563 0c52.64235375-5.16998062 80.75838375 16.85758594 84.223755 66.22307813l53.19183937 352.93439343 39.65924532 7.79307375L1382.00664312 507.69509762zM561.8407775 674.28157543l24.50225813 49.86283781-147.00953813 0L378.07584687 599.4953404299999l526.79253469 0-115.44016968-621.58085813 53.60094562 0c65.44096312-5.16998062 100.9730475 23.37521063 106.71657938 85.69573594L1051.87791969 674.28157543 561.8407775 674.28157543zM2089.05862906 98.67704479999998l5.86385719-120.7625625 126.33362719 0-5.85984563 120.7625625L2089.05862906 98.67704479999998zM2635.11124625 679.09860137l50.24787844 86.49389343-63.43955156-86.49389343-60.94881563 0 14.41899094 38.96135812L2399.28152375 718.05995949l-24.297705-118.56862969 190.80396563 3.07631907-276.55986375-377.05161 171.51580687 0-122.51129062-386.43699 294.01907625 560.96093156-159.2626725 0 117.89881781 202.93276406 131.09450156 2.11371563c0 0-61.59055125-355.38903094-86.30939531-498.01872563-6.20878969-35.81284406-52.42576781-31.14020813-52.42576781-31.14020812l-24.50225813-99.72166407 147.00953813 0c52.64235375-5.16998062 74.81029969 18.56620594 78.27968156 67.9276875l110.00547281 634.96505157L2635.11124625 679.09860137zM2020.26860938 718.05995949l-90.98604188-537.48545062 27.56654438 1.91718468 19.92187218-1.36769812-40.61783718-136.99044469L1523.72186469 44.13354979999997c-31.58541187-5.238165-42.05372062 7.7850525-31.52123906 38.9573475l55.16918625 312.37671844 202.90869937 0-28.85001562-160.45389375c2.21398687-31.16427375-12.80262-44.18749031-45.04180032-38.94932531l-91.88046 0-12.86278312-74.01615188 222.04845562 0c52.70251594-5.238165 81.23567438 19.48067906 85.60348594 74.01615188l48.41091094 273.41937187L1395.54324781 469.48376762l-74.07230344-421.45167563c-8.13800625-46.74239906 15.91102594-70.11760969 72.08292469-70.11760969L2039.02733656-22.08551769999997l33.81945375 159.71188782 81.61670531 312.27243656-47.48039531 0 26.81651625 194.14901156 72.74070281 0L2115.38181125 118.14970168000002l57.42729281 0c52.69850531-5.23014281 81.23567438 19.47265688 85.59947532 74.01615187l91.10235562 525.894105L2020.26860938 718.05995949z"  horiz-adv-x="3088" />

    
    <glyph glyph-name="taoqianggou1" unicode="&#58888;" d="M2998.857143 896h-2706.285714c-160.914286 0-292.571429-131.657143-292.571429-292.571429v-438.857142c0-160.914286 131.657143-292.571429 292.571429-292.571429h2706.285714c160.914286 0 292.571429 131.657143 292.571428 292.571429v438.857142c0 160.914286-131.657143 292.571429-292.571428 292.571429z m-1283.657143-193.828571h263.314286l91.428571-182.857143h-131.657143l-80.457143 120.685714h-36.571428l-76.8-120.685714h-135.314286l106.057143 182.857143z m-1166.628571 0l164.571428-32.914286-10.971428-73.142857-164.571429 29.257143 10.971429 76.8z m-18.285715-106.057143l164.571429-32.914286-14.628572-73.142857-164.571428 32.914286 14.628571 73.142857z m-91.428571-515.657143l95.085714 369.371428h142.628572l-98.742858-369.371428h-138.971428z m603.428571 36.571428c-3.657143-21.942857-29.257143-40.228571-51.2-32.914285h-362.057143l47.542858 266.971428h95.085714l-36.571429-212.114285h43.885715l43.885714 252.342857h-138.971429l10.971429 62.171428h138.971428l7.314286 32.914286h-138.971428l47.542857 95.085714h128l-14.628572-32.914285h263.314286l-10.971429-62.171429h-138.971428l-7.314286-32.914286h138.971429l-10.971429-62.171428h-138.971428l-43.885715-252.342857h14.628572c21.942857-3.657143 36.571429 7.314286 36.571428 32.914285l32.914286 179.2h95.085714l-40.228571-226.742857c-10.971429-3.657143-10.971429-7.314286-10.971429-7.314286z m73.142857-36.571428h-47.542857l91.428572 522.971428h-442.514286l47.542857 95.085715h128l-14.628571-32.914286h420.571428l-91.428571-515.657143c-7.314286-47.542857-36.571429-73.142857-91.428572-69.485714z m365.714286 40.228571c-7.314286-29.257143-40.228571-47.542857-69.485714-36.571428h-190.171429l10.971429 54.857143h65.828571c21.942857-3.657143 36.571429 7.314286 36.571429 32.914285l43.885714 226.742857-98.742857-21.942857 10.971429 65.828572 98.742857 21.942857 21.942857 142.628571h-95.085714l10.971428 62.171429h95.085714l7.314286 32.914286h157.257143l-7.314286-32.914286h32.914286l-10.971429-62.171429h-32.914285l-14.628572-102.4 32.914286 7.314286-10.971429-65.828571-32.914285-7.314286-54.857143-303.542857c-7.314286-3.657143-7.314286-10.971429-7.314286-14.628572z m713.142857-40.228571l-3.657143 102.4h109.714286l3.657143-102.4h-109.714286z m138.971429 164.571428c-7.314286-32.914286-40.228571-51.2-73.142857-43.885714h-47.542857l76.8 438.857143h-62.171429l-32.914286-182.857143 36.571429-14.628571-91.428572-358.4H1594.514286c-47.542857 0-69.485714 18.285714-62.171429 58.514285l76.8 347.428572h457.142857l-54.857143-223.085714v-18.285715c-7.314286-32.914286-40.228571-51.2-73.142857-43.885714h-190.171428l10.971428 62.171429h80.457143c29.257143-3.657143 40.228571 7.314286 40.228572 32.914285l40.228571 153.6h-175.542857l-62.171429-281.6c-7.314286-25.6 0-36.571429 25.6-32.914285h336.457143l21.942857 62.171428h-18.285714l87.771429 501.028572h281.6l-76.8-438.857143c-7.314286-7.314286-7.314286-14.628571-7.314286-18.285715z m424.228571-106.057142c0-7.314286 0-10.971429-3.657143-18.285715-7.314286-29.257143-40.228571-47.542857-69.485714-36.571428h-95.085714l14.628571 76.8 51.2 14.628571 76.8 435.2h-102.4l-91.428571-179.2h128l-245.028572-409.6 91.428572 270.628572h-142.628572l230.4 318.171428h-190.171428l40.228571 95.085714h149.942857l-10.971428-32.914285h58.514286l58.514285 80.457143-43.885714-80.457143h186.514286l-91.428572-533.942857z"  horiz-adv-x="3291" />

    
    <glyph glyph-name="juhuasuan1" unicode="&#58889;" d="M2322.285714 541.257143s0-3.657143 0 0zM950.857143 515.657143c-3.657143 0-3.657143-3.657143-7.314286-3.657143l7.314286 3.657143zM1587.2 157.257143zM1532.342857 226.742857s0 3.657143 0 0c0 3.657143-3.657143 3.657143 0 0zM577.828571 566.857143h128v-36.571429h-128zM1024 215.771429l-3.657143 3.657142 3.657143-3.657142zM954.514286 256l3.657143-3.657143c0 3.657143-3.657143 3.657143-3.657143 3.657143zM742.4 179.2zM577.828571 497.371429v-40.228572l128 7.314286v32.914286zM577.828571 629.028571h128v-32.914285h-128zM2358.857143 252.342857v-3.657143zM2355.2 420.571429h358.4v-32.914286h-358.4zM2355.2 471.771429zM2998.857143 896h-2706.285714c-160.914286 0-292.571429-131.657143-292.571429-292.571429v-438.857142c0-160.914286 131.657143-292.571429 292.571429-292.571429h2706.285714c160.914286 0 292.571429 131.657143 292.571428 292.571429v438.857142c0 160.914286-131.657143 292.571429-292.571428 292.571429z m-1250.742857-296.228571h113.371428V208.457143h-113.371428v391.314286z m-131.657143 102.4c40.228571 0 69.485714-32.914286 69.485714-69.485715 0-40.228571-32.914286-69.485714-69.485714-69.485714-40.228571 0-69.485714 32.914286-69.485714 69.485714 0 40.228571 29.257143 69.485714 69.485714 69.485715z m-625.371429-274.285715c36.571429-65.828571 47.542857-80.457143 47.542857-80.457143-58.514286-10.971429-117.028571-14.628571-171.885714-21.942857 29.257143-25.6 58.514286-47.542857 91.428572-65.828571 65.828571 40.228571 120.685714 106.057143 120.685714 106.057143s40.228571-25.6 91.428571-62.171429c-32.914286-32.914286-95.085714-62.171429-142.628571-80.457143 47.542857-21.942857 95.085714-40.228571 146.285714-54.857143-18.285714-14.628571-36.571429-29.257143-54.857143-47.542857l-43.885714-47.542857s-120.685714 65.828571-208.457143 142.628572v-157.257143h-120.685714v124.342857c-87.771429-58.514286-186.514286-95.085714-288.914286-102.4-3.657143 14.628571-10.971429 29.257143-14.628571 43.885714 197.485714 51.2 259.657143 113.371429 259.657143 113.371429l43.885714-51.2V318.171429c-10.971429 0-25.6 0-36.571429-3.657143 10.971429-10.971429 18.285714-21.942857 29.257143-32.914286-84.114286-54.857143-179.2-87.771429-281.6-87.771429v47.542858s117.028571 32.914286 182.857143 69.485714h-131.657143c-3.657143 14.628571-7.314286 29.257143-10.971428 47.542857 0 0 98.742857 3.657143 208.457142 14.628571v40.228572c-25.6-3.657143-47.542857-3.657143-73.142857-7.314286-102.4-14.628571-193.828571-32.914286-193.828571-32.914286-10.971429 25.6-21.942857 54.857143-36.571429 80.457143l80.457143 3.657143v179.2h-51.2V683.885714h424.228572v-51.2h-51.2v-160.914285l47.542857 3.657142v-51.2s-18.285714 0-47.542857-3.657142v-36.571429c40.228571 3.657143 80.457143 10.971429 117.028571 21.942857-14.628571 25.6-32.914286 51.2-54.857143 69.485714 25.6 10.971429 54.857143 21.942857 80.457143 36.571429-40.228571 29.257143-69.485714 47.542857-69.485714 47.542857 14.628571 18.285714 32.914286 32.914286 54.857143 43.885714 18.285714-7.314286 51.2-25.6 84.114285-47.542857 36.571429 25.6 62.171429 54.857143 58.514286 73.142857-10.971429 36.571429-131.657143 10.971429-190.171429-7.314285-10.971429-3.657143-25.6-10.971429-25.6-10.971429h-3.657142v3.657143l10.971428 29.257143s98.742857 25.6 160.914286 36.571428c-21.942857-3.657143 124.342857 36.571429 142.628571-47.542857 7.314286-29.257143-18.285714-69.485714-80.457143-124.342857 43.885714-29.257143 80.457143-54.857143 80.457143-54.857143-25.6-29.257143-54.857143-54.857143-84.114285-80.457143-10.971429 25.6-36.571429 51.2-69.485715 80.457143-14.628571-10.971429-32.914286-21.942857-51.2-36.571428 7.314286 3.657143 18.285714 7.314286 25.6 10.971428z m735.085715-373.028571s-117.028571-10.971429-219.428572 51.2c-73.142857-32.914286-142.628571-29.257143-142.628571-29.257143-7.314286 14.628571-14.628571 32.914286-21.942857 47.542857 43.885714 3.657143 76.8 14.628571 106.057142 29.257143-51.2 54.857143-58.514286 179.2-62.171428 288.914286v7.314285c-32.914286-7.314286-65.828571-14.628571-84.114286-25.6l-29.257143 98.742858 113.371429 3.657142v146.285715h128v-142.628572l193.828571 7.314286v-54.857143s-91.428571-3.657143-193.828571-14.628571v-135.314286s-7.314286-54.857143 18.285714-109.714286c36.571429 58.514286 32.914286 124.342857 32.914286 142.628572v73.142857l102.4 3.657143s14.628571-179.2-54.857143-263.314286c-7.314286-10.971429-18.285714-18.285714-25.6-25.6 36.571429-29.257143 91.428571-47.542857 171.885714-47.542857-10.971429-14.628571-18.285714-32.914286-32.914285-51.2z m307.2 135.314286c0-36.571429-10.971429-106.057143-73.142858-124.342858-51.2-10.971429-106.057143-10.971429-157.257142-7.314285l21.942857 54.857143c95.085714 3.657143 91.428571 76.8 91.428571 76.8V683.885714h117.028572v-493.714285z m749.714285 369.371428c-7.314286-7.314286-10.971429-14.628571-18.285714-21.942857 80.457143-14.628571 80.457143-62.171429 80.457143-62.171429v-138.971428c0-51.2-76.8-51.2-76.8-51.2h-14.628572v-36.571429h135.314286v-62.171428h-135.314286v-135.314286h-117.028571v135.314286h-182.857143c-18.285714-47.542857-62.171429-87.771429-113.371428-102.4-40.228571-14.628571-84.114286-21.942857-124.342858-21.942857-10.971429 18.285714-21.942857 32.914286-32.914285 47.542857 91.428571 3.657143 135.314286 36.571429 157.257143 76.8h-186.514286v62.171428h208.457143v32.914286h-128v256h91.428571c-14.628571 18.285714-32.914286 32.914286-51.2 47.542857-25.6-25.6-54.857143-47.542857-84.114286-69.485714-18.285714 7.314286-36.571429 18.285714-51.2 32.914286 43.885714 47.542857 80.457143 102.4 106.057143 160.914285 32.914286-18.285714 69.485714-32.914286 106.057143-43.885714-3.657143-7.314286-10.971429-14.628571-14.628571-21.942857v-3.657143h190.171428l-36.571428-69.485714c-36.571429 10.971429-76.8 18.285714-113.371429 21.942857l43.885714-32.914286c-14.628571-14.628571-29.257143-32.914286-40.228571-47.542857 51.2 7.314286 102.4 14.628571 153.6 18.285714-10.971429 7.314286-18.285714 10.971429-25.6 18.285715 43.885714 47.542857 80.457143 102.4 106.057143 160.914285 32.914286-18.285714 69.485714-32.914286 106.057143-43.885714-7.314286-7.314286-10.971429-14.628571-18.285715-21.942857h193.828572l-36.571429-69.485714c-36.571429 10.971429-76.8 18.285714-117.028571 21.942857 7.314286-10.971429 25.6-21.942857 40.228571-36.571429zM2464.914286 252.342857h171.885714v36.571429h-171.885714v-36.571429zM2709.942857 347.428571v3.657143h-358.4v-36.571428h358.4v32.914285zM2739.2 596.114286zM2709.942857 453.485714v7.314286 10.971429c-7.314286 18.285714-25.6 25.6-40.228571 21.942857-106.057143 7.314286-212.114286-3.657143-314.514286-21.942857v-18.285715h354.742857zM2684.342857 544.914286c-14.628571 14.628571-29.257143 29.257143-43.885714 40.228571-18.285714-18.285714-40.228571-32.914286-58.514286-47.542857 32.914286 3.657143 69.485714 7.314286 102.4 7.314286z"  horiz-adv-x="3291" />

    
    <glyph glyph-name="tao" unicode="&#58880;" d="M238.427786 565.453678c-10.41521 0-20.093641 1.812275-29.03529 5.454222-8.961092 3.64297-16.762779 8.627495-23.422456 14.997576-6.639211 6.370081-11.845793 13.656021-15.601326 21.837354-3.75451 8.179286-5.631254 17.119913-5.631254 26.819832 0 19.400862 7.218402 35.94056 21.679765 49.574069 14.43885 13.656021 31.782867 20.47431 52.010561 20.47431 20.22667 0 37.549198-6.818289 52.010561-20.47431 14.43885-13.633508 21.658276-30.173207 21.658276-49.574069 0-9.699919-1.877767-18.640546-5.632277-26.819832-3.75451-8.181333-8.962116-15.467273-15.601326-21.837354-6.639211-6.370081-14.437827-11.354606-23.400966-14.997576C258.498914 567.265954 248.820484 565.453678 238.427786 565.453678L238.427786 565.453678zM465.535247 632.753457c52.011584 15.154141 98.098225 25.770943 138.26197 31.827893 40.164768 6.056949 75.411527 8.80555 105.741299 8.181333 30.354332-0.602727 56.347333-3.933589 78.027098-9.990538 21.659299-6.056949 39.71963-13.344936 54.177923-21.837354 34.086329-20.00359 55.476499-47.897893 64.147996-83.681888 4.626367-27.870768 8.091282-60.010769 10.394744-96.398514 2.323928-30.912034 3.328815-68.059072 3.038196-111.419625-0.288572-43.338041-3.038196-91.995227-8.224312-145.972583-2.905166-27.290553-9.253758-49.865711-19.087731-67.744917-9.81146-17.902742-21.656229-32.609699-35.537378-44.12087-13.858636-11.533684-29.324886-20.00359-46.378284-25.457812-17.032932-5.476735-34.240849-9.096169-51.564399-10.930957-40.454364-4.247744-86.117356 0-136.967488 12.740162l14.731516 61.845557 61.553914-13.633508c14.437827-1.230014 26.864858-0.759293 37.281091 1.362021 10.392698 2.124384 19.355837 5.455245 26.864858 9.992585 7.511067 4.558829 13.723559 9.699919 18.642592 15.467273 4.894474 5.765307 8.804527 11.978822 11.69025 18.639522 6.369058 15.154141 9.54233 32.453133 9.54233 51.855018L801.871435 518.160559c0.581238 58.20054-24.429389 91.257423-74.986855 99.125625-50.556443 7.888667-122.951263-5.743818-217.137389-40.925085l43.338041-12.740162c-1.720178-6.659677-5.922896-14.997576-12.562107-25.009603-6.658653-9.991562-14.303774-21.055548-22.974247-33.192983l251.377214 0 0-53.664224L626.774535 451.754127l0-66.381873 141.2797 0 0-53.665247L626.774535 331.707007l0-111.86374c23.109324 7.867178 42.467207 18.169825 58.06751 30.91101l-12.136412 48.210002 66.741054 21.813818 55.494918-141.882428-82.360799-36.364209-14.730493 57.283658c-9.253758-7.264451-20.944008-15.155165-35.113729-23.64656-14.148231-8.470929-31.358195-16.204054-51.563376-23.178909-20.227694-6.970762-43.493583-12.58155-69.801762-16.827247-26.285666-4.247744-55.899124-5.76633-88.844467-4.561899-17.903765-0.602727-33.079396 1.231037-45.506427 5.477758-12.42703 4.244674-22.819728 10.30367-31.201629 18.170848-8.381901 7.890714-14.886035 16.83134-19.512403 26.844392-4.626367 9.989515-8.091282 20.450774-10.392698 31.379685-5.206582 24.853038-4.916986 53.351092 0.871857 85.492116l3.463891 2.726088 100.556207 0c-0.580215-11.510148-1.876744-24.854061-3.911076-40.030715-2.012843-15.153118-0.134053-27.869744 5.632277-38.19695 5.207605-8.469905 13.008268-13.791098 23.401989-15.913435 10.41521-2.12336 19.646456-3.174296 27.736715-3.174296 1.162476-0.604774 2.905166-0.916882 5.208629-0.916882L508.874311 331.70803 364.105137 331.70803l0 53.665247 144.769174 0 0 66.381873-37.282115 0c-8.091282-9.096169-15.891945-17.567098-23.401989-25.456788l-19.936051-20.921495c-6.347568-6.683213-12.717649-13.028735-19.065218-19.10922l-43.338041 40.030715c7.509021 8.493441 15.177678 18.036795 22.976294 28.653597 7.800663 10.595312 15.154141 21.525246 22.10546 32.744775 6.928806 11.19804 13.43294 22.283516 19.48989 33.190937 6.078439 10.906397 11.710716 20.920472 16.920368 30.017664-8.092305-3.039219-16.181541-6.371104-24.273846-10.014074-8.091282-3.64297-16.181541-7.576559-24.272823-11.82328-8.090259-10.30367-16.762779-21.077038-26.016537-32.29759-9.231245-11.197016-19.065218-21.970384-29.481452-32.275077 0-0.603751-3.596921 1.206478-10.81737 5.454222-7.219425 4.246721-15.46625 9.097192-24.718985 14.551414-10.393721 6.659677-22.240537 13.94664-35.539424 21.836331 18.506493 16.96437 34.980699 37.281091 49.418526 60.928674 14.43885 23.64656 26.574239 46.690392 36.408211 69.130474 11.555174 25.457812 21.660322 52.144614 30.330796 80.038918l104.021122-30.016641-6.928806-14.550391-7.801686-17.276479C474.207767 647.907599 470.161614 640.643148 465.535247 632.753457zM176.873872 537.24829c16.182564-12.718673 29.189809-23.043832 39.002292-30.91101 9.832949-7.889691 18.349927-15.020088 25.590841-21.390169 7.220449-6.347568 14.437827-13.187347 21.659299-20.450774 7.219425-7.286963 16.338107-16.672728 27.312042-28.206412 16.763802-17.568121 24.988114-38.801724 24.698518-63.656809-0.291642-24.853038-5.342682-53.6632-15.176654-86.405929l-7.801686-26.374694c-2.302439-6.057973-4.759397-12.270465-7.352455-18.639522-2.614547-6.372128-5.632277-13.343913-9.097192-20.920472-3.487428-7.578606-8.091282-17.746176-13.880125-30.464849l-21.680788-48.208978c-8.648984-18.799158-19.355837-43.049468-32.073486-72.752977l-112.670106 73.668837c23.691585 22.440082 45.641503 44.567032 65.868173 66.38085 17.34504 18.193361 34.240849 37.304627 50.714032 57.307194 16.47216 20.005636 27.871791 36.990472 34.241872 50.937113 6.927783 13.947663 9.230222 26.532283 6.927783 37.728276-2.301416 11.220552-6.056949 20.47431-11.263531 27.760251-6.371104 8.470929-14.729469 16.047488-25.143657 22.729677l-86.678128 56.391335L176.873872 537.24829z"  horiz-adv-x="1024" />

    
    <glyph glyph-name="ju" unicode="&#58881;" d="M126.327662 93.068931c47.75463 8.847505 89.304955 20.664645 124.651998 35.494399 35.347043 14.8318 64.786539 29.514197 88.343047 43.999097 27.906583 17.054421 51.783387 35.346019 71.631434 54.872748l55.813167-65.255213c-11.171434-10.726296-25.582655-21.306258-43.256176-31.737842-17.673521-10.382465-37.201274-20.022009-58.605769-28.821419-21.381983-8.848529-43.23264-17.055444-65.576531-24.619724-22.320355-7.563256-43.701315-14.039761-64.168462-19.378349-20.467147-5.389754-38.757722-9.491165-54.873772-12.310374-16.139585-2.867304-28.52466-4.249791-37.22481-4.249791-1.854231 5.04183-3.707438 10.529821-5.561669 16.561188-1.877767 5.982248-3.731998 11.468193-5.586229 16.561188C129.417023 80.462822 127.563816 86.789924 126.327662 93.068931L126.327662 93.068931zM925.335375 300.304809c-16.759709-15.127536-34.727942-29.314653-53.958936-42.565445-16.116049-11.368932-34.728966-22.394033-55.812143-33.121352-21.084201-10.727319-42.788525-18.291598-65.107857-22.740934 24.815175-13.248745 51.463092-25.360598 79.988776-36.433794 28.52159-11.024078 58.925041-20.020986 91.157139-26.942629-11.789511-15.770172-22.641673-30.600949-32.553417-44.49233-8.676613-11.963473-17.203824-23.777543-25.583678-35.446303-8.377808-11.665691-15.028275-20.019962-19.99438-25.112957-32.234145 13.890358-61.401442 28.573779-87.429235 43.998073-26.052353 15.47239-49.311079 30.946826-69.753667 46.37112-20.466124 15.473413-38.289048 30.598902-53.490262 45.430702-15.20019 14.830777-28.375258 28.525684-39.524179 41.178865l0-177.919179L480.708831 32.508647 480.708831 313.552531c-8.676613-0.642636-17.203824-1.087774-25.582655-1.433652-8.355295-0.295735-16.883529-0.788969-25.559119-1.38351l30.674627-34.06177c-27.263947-17.054421-57.346079-33.120328-90.220814-48.299029-27.906583-12.606109-60.905138-25.358551-99.044784-38.311561-38.139645-12.903891-79.541591-22.839171-124.1823-29.809933-1.854231 8.847505-3.733021 17.055444-5.586229 24.618701l-5.586229 20.813025c-1.854231 6.92062-3.387144 12.310374-4.647857 16.065907 19.230993 2.521426 38.609343 6.970762 58.136072 13.248745 19.527752 6.327102 38.289048 13.398148 56.282864 21.307282 17.969257 7.860015 34.728966 16.264429 50.225915 25.062815 15.498996 8.849552 29.440519 17.055444 41.848107 24.619724-17.97028-1.284249-34.407648-1.87879-49.287543-1.87879-14.880919 0-27.609825-0.345877-38.139645-0.988514-12.408611-0.592494-23.877827-0.938372-34.407648-0.938372l-13.96506 65.303308c27.906583 0 61.399395 1.086751 100.452853 3.311419 39.07904 2.224668 79.987752 5.53711 122.774231 9.937326l0 46.370097c-45.876863-5.04183-87.10587-10.43056-123.689067-16.116049-36.583197-5.636371-67.899436-11.024078-93.951789-16.066931-30.378891-6.328126-57.369615-12.30935-80.926124-17.992793l-36.261878 93.679589c14.238282 1.927909 29.587875 3.806699 46.025243 5.685489 16.436344 1.87879 33.641191 3.806699 51.635007 5.685489l0 189.240015-61.399395 0L126.325615 741.221868l467.86071 0 0-23.629163c21.702278 3.164063 49.756217 6.277984 84.188424 9.44307 34.408671 3.163039 69.606311 4.448312 105.571431 3.805676 30.996968 0 57.814754-3.460822 80.455403-10.431583 22.617114-6.92062 38.907125-16.362666 48.818869-28.375258 17.374716-21.454638 15.819291-48.546669-4.647857-81.372286-5.586229-9.441023-13.939477-20.020986-25.112957-31.6877-11.147898-11.667737-24.174586-23.828708-39.055504-36.433794 27.907607-18.934235 54.875818-40.685631 80.928171-65.304332-7.440459-7.563256-16.290011-16.412808-26.523073-26.498514-10.232039-10.084683-19.996426-19.527752-29.29214-28.375258l-33.489742-32.18298c-13.026688 16.412808-26.203802 32.034601-39.524179 46.865377-13.350053 14.830777-26.523073 28.52466-39.525202 41.130769-15.522532-10.727319-31.638581-21.10876-48.373731-31.194466-16.757662-10.084683-33.812083-20.516266-51.166333-31.243585 14.263865 3.807722 27.760251 7.564279 40.464597 11.369955 12.704346 3.75758 24.347524 7.860015 34.877345 12.30935 4.967128-12.655228 10.55438-24.618701 16.757662-35.988656 4.944616-10.084683 10.382465-20.318768 16.264429-30.748305 5.884011-10.382465 11.939937-19.378349 18.144242-26.943652-23.580045-5.04183-50.697659-9.490142-81.397868-13.248745-30.699186-3.805676-63.400982-7.266497-98.129948-10.429537 19.22997-25.212218 44.022633-49.830919 74.42506-73.808006 23.556509 7.563256 44.171012 17.847483 61.844533 30.749328 17.674545 12.950963 32.703843 25.707498 45.109384 38.361703 14.263865 14.484899 26.673499 29.959336 37.202297 46.322002L925.335375 300.304809zM424.895665 518.859477 293.767162 518.859477l0-29.315676c22.938432 1.285273 45.407166 2.224668 67.430762 2.817162 22.00006 0.64366 43.256176 1.582031 63.698764 2.868327L424.896688 518.859477zM424.895665 596.475206 293.767162 596.475206l0-32.184003 131.128503 0L424.895665 596.475206zM424.895665 671.22056 293.767162 671.22056l0-29.314653 131.128503 0L424.895665 671.22056zM524.433682 392.105608c19.84907 3.114944 38.907125 6.130627 57.198723 8.948813 18.290575 2.867304 35.815717 6.179746 52.549843 9.936303l-39.992853 80.431867c17.994839 6.970762 35.346019 14.039761 52.081169 21.306258 16.757662 7.267521 32.255635 14.682397 46.5195 22.245653-12.408611 10.084683-23.730471 19.082614-33.962509 26.943652-10.208503 7.909134-19.058055 14.385639-26.498514 19.428491-8.676613 6.277984-16.73515 11.319813-24.174586 15.127536l43.702338 50.127677c11.171434-4.400217 23.258727-9.738805 36.284391-16.066931 11.149944-5.042853 24.176632-11.370978 39.055504-18.934235 14.880919-7.563256 31.020504-16.066931 48.373731-25.559119 17.993816 12.656251 30.698163 24.618701 38.138622 35.989679 9.91379 12.605086 11.470239 23.333428 4.646833 32.132838-8.057513 10.134825-23.556509 15.176654-46.491871 15.176654l-3.735068 0c-26.051329 0-50.373271-2.076288-73.01699-6.178723-22.641673-4.103458-42.168402-8.503675-58.605769-13.249769-16.412808-4.695952-29.439496-9.293667-39.053458-13.693884-9.616008-4.448312-14.731516-6.623861-15.349593-6.623861l-11.172457 41.624003-46.495964 0 0-173.173085c10.529821 0 19.996426 0.148379 28.376281 0.494257 8.354272 0.296759 15.645328 0.446162 21.851681 0.446162l18.611893 0 0-61.499679c-23.580045 0-46.518476-0.938372-68.838831-2.817162L524.435729 392.105608 524.433682 392.105608z"  horiz-adv-x="1024" />

    
    <glyph glyph-name="mao" unicode="&#58882;" d="M904.571469 570.65719c-9.215896 3.685949-17.513886 5.376451-24.883737 5.071506-7.367805-0.311085-14.742772-2.768043-22.115694-7.375991-7.373944-4.605901-13.056364-8.751315-17.046235-12.440333-3.990894-3.683902-7.218402-6.754844-9.67536-9.214872-1.226944-1.839905-3.37691-4.606925-6.451946-8.292873-14.745842-17.196661-26.571169-30.250978-35.480073-39.162952-8.906857-8.904811-21.041222-19.654642-36.395932-32.252565-15.363919-12.593829-31.643698-21.656229-48.845475-27.181059-17.200754-5.53097-35.939537-8.296967-56.214303-8.296967l-21.192671 0L511.999488 431.511083l-113.351628 0-22.115694 0c-16.584724 0-32.865525 2.613524-48.839335 7.833409-15.972786 5.222955-29.179576 10.595312-39.628556 16.125259-10.443863 5.53097-22.727631 15.050788-36.860513 28.568662-14.128789 13.515828-23.804149 23.191188-29.027104 29.025057-5.218862 5.836939-14.897292 17.048281-29.027104 33.634028-5.53097 7.986905-15.357779 15.821337-29.491685 23.500227-14.128789 7.68196-28.873608 7.835456-44.231387 0.459464-24.572652-17.200754-36.860513-54.061266-36.860513-110.578468l0-2.762927 0-0.921999 0-65.427128 0-119.79334 0-9.215896c1.227967-23.959691 6.91141-41.156352 17.050328-51.603285 10.137895-10.44284 24.419156-16.585747 42.849924-18.430768 3.900843 0.025583 4.491291 0.278339 8.674567 0l722.248492 0c4.443196 0.278339 5.776563-0.01842 9.0624 0 19.046798 1.847068 33.329083 7.987928 42.854017 18.430768 9.507538 10.446933 14.888082 27.643594 16.127306 51.603285l0 9.215896L941.433004 390.966669l0 65.427128 0 0.921999 0 2.762927C941.431981 517.823891 929.14105 554.684404 904.571469 570.65719zM242.91089 236.156814c-25.188682 3.686972-46.077432 14.282285-62.662155 31.787984-16.590863 17.511839-24.883737 38.860053-24.883737 64.048735 0 25.181519 9.215896 47.14781 27.647687 65.8825 18.430768 18.74083 39.934524 28.109198 64.508199 28.109198-7.985882-1.227967-14.745842-11.059893-20.270672-29.488615-5.531993-18.430768-8.299013-40.545438-8.299013-66.349127C218.950176 283.461189 226.938104 252.130623 242.91089 236.156814zM320.782446 267.48738c-16.895809-17.201777-37.937031-27.643594-63.125713-31.330566 7.369851 5.529947 13.052271 16.894785 17.050328 34.093493 3.990894 17.201777 5.989411 37.171598 5.989411 59.896158 0 26.41665-2.610454 48.536436-7.834432 66.351174-5.218862 17.816784-11.824303 27.644617-19.811208 29.488615 25.799596 0 47.76384-9.214872 65.887616-27.64564 18.125823-18.429745 27.187199-40.549531 27.187199-66.347081C346.124624 306.19189 337.674161 284.688133 320.782446 267.48738zM484.813313 346.736305c2.148943 2.456958 5.376451 3.685949 9.677407 3.685949l35.015491 0c5.529947 0 9.367345-1.227967 11.519358-3.685949 2.15099-2.455935 1.687432-5.223978-1.382487-8.292873l-10.136871-13.82282-11.05887-16.58984c-1.220804-1.226944-3.370771-1.839905-6.448876-1.839905-3.074012 0-4.607948 0.613984-4.607948 1.839905-0.61603 0.618077-1.690502 2.152013-3.226484 4.607948-1.533936 2.456958-3.072989 4.608971-4.606925 6.452969-1.533936 1.839905-3.224438 3.684926-5.067412 5.528923l-10.136871 13.82282C482.507804 341.511303 482.662323 344.279347 484.813313 346.736305zM613.3682 224.173898c-3.074012-6.751774-10.905374-11.516288-23.502273-14.278191-12.593829-2.76395-25.954115-2.15099-40.083927 1.845021-14.133905 3.989871-24.266683 11.822257-30.41266 23.49511-0.610914 0.61603-0.921999 1.532913-0.921999 2.759857-1.839905 1.847068-3.990894 2.768043-6.448876 2.768043-1.845021 0-3.684926-0.919952-5.528923-2.768043-1.227967-1.226944-1.846044-2.14485-1.846044-2.759857-6.141884-12.282744-16.127306-20.423145-29.951149-24.419156-13.821797-3.993964-26.876114-4.454452-39.163975-1.379417-12.283768 3.066849-20.577664 7.985882-24.87862 14.736633l0 11.06194c3.684926-3.686972 10.290367-7.218402 19.811208-10.596336 9.522887-3.37998 20.580734-4.14746 33.175587-2.303462 12.593829 1.837858 22.269189 8.596795 29.027104 20.267603 4.29277 7.374968 6.747681 15.669888 7.370875 24.882714 1.228991 6.14086 1.845021 11.363815 1.845021 15.667841l20.274766 0c0-7.375991 0.305969-12.592806 0.916882-15.667841 0.61603-1.845021 1.692548-5.835915 3.226484-11.977799 1.540076-6.147 2.920516-10.443863 4.148483-12.904914 7.987928-10.4367 18.279319-16.736173 30.874171-18.885116 12.593829-2.153036 23.496134-1.847068 32.713053 0.920976 9.214872 2.759857 15.666818 6.29538 19.35379 10.597359L613.367177 224.173898zM765.420245 236.156814c-23.960715 3.687996-44.542472 14.434757-61.743226 32.252565-17.202801 17.812691-25.802666 39.012526-25.802666 63.585177 0 25.181519 9.366322 47.14781 28.106128 65.8825 18.736736 18.74083 40.697911 28.109198 65.88864 28.109198-8.599865-1.843998-15.512299-11.519358-20.73423-29.031197-5.221932-17.507746-7.829316-39.775912-7.829316-66.807568C743.305575 282.232199 750.674403 250.901633 765.420245 236.156814zM844.206636 267.48738c-16.276708-17.201777-37.318954-27.643594-63.123666-31.330566 7.373944 5.529947 13.057387 16.894785 17.046235 34.093493 3.997034 17.201777 5.990434 37.171598 5.990434 59.896158 0 26.41665-2.609431 48.536436-7.829316 66.351174-5.222955 17.816784-12.134365 27.644617-20.73423 29.488615 26.417673 0 48.53439-9.214872 66.346057-27.64564 17.818831-18.429745 26.723641-40.549531 26.723641-66.347081C868.627838 306.19189 860.488461 284.688133 844.206636 267.48738z"  horiz-adv-x="1024" />

    
    <glyph glyph-name="weixin1" unicode="&#59093;" d="M672.56035156 543.6515625c9.60029297 0 18.95976562-0.42011719 28.50029297-1.32011719-21.54023438 136.8-155.7 242.22041016-318.06035156 242.22041016-177.35976562 0-321.11982422-125.81982422-321.11982422-280.98017578 0-86.76035156 45-164.33964844 115.56035156-215.94023438-9-45.12041016-20.22011719-104.45976563-18.60029297-102.47958984 2.46005859 0.9 64.50029297 35.33994141 103.5 57.89970703 37.26035156-13.13964844 77.93964844-20.51982422 120.65976563-20.51982422 4.5 0 8.87958984 0.12041016 13.37958984 0.23994141-4.97988281 19.37988281-7.56035156 39.23964844-7.56035156 60.00029297-0.05976563 144.05976562 126.95976563 260.87958984 283.73994141 260.87958984zM509.11982422 635.39179688c22.20029297 0 40.13964844-17.94023437 40.13964844-40.07988282 0-22.20029297-18-40.20029297-40.13964844-40.20029297-22.13964844 0-40.13964844 18.05976563-40.13964844 40.20029297 0 22.13964844 18 40.07988281 40.13964844 40.07988282zM262.57958984 555.1125c-22.20029297 0-40.07988281 18.05976563-40.07988281 40.20029297s17.94023437 40.07988281 40.07988281 40.07988281 40.13964844-17.94023437 40.13964844-40.07988281c0-22.20029297-18-40.20029297-40.13964844-40.20029297zM962.12041016 291.4125c0 129.83994141-123.17958984 235.08017578-275.1600586 235.08017578-152.04023438 0-275.27958984-105.3-275.27958984-235.08017578 0-129.83994141 123.24023438-235.19970703 275.27958984-235.19970703 41.34023437 0 80.52011719 7.86005859 115.80029297 21.83994141 36.29970703-19.37988281 75.83994141-39.78017578 77.82011719-40.37958985 1.37988281-1.50029297-6.42041016 36.47988281-14.87988281 74.82041016 58.92011719 43.32041016 96.42041016 107.28017578 96.42041015 178.91982422zM583.70029297 343.01220703c-22.20029297 0-40.20029297 17.94023437-40.20029297 40.07988281s18 40.20029297 40.20029297 40.20029297c22.13964844 0 40.07988281-18.05976563 40.07988281-40.20029297 0-22.13964844-17.94023437-40.07988281-40.07988281-40.07988281zM784.33964844 343.01220703c-22.13964844 0-40.20029297 17.94023437-40.20029297 40.07988281s18.05976563 40.20029297 40.20029297 40.20029297 40.20029297-18.05976563 40.20029297-40.20029297c0-22.13964844-18.05976563-40.07988281-40.20029297-40.07988281z"  horiz-adv-x="1024" />

    
    <glyph glyph-name="login_duanxin" unicode="&#59008;" d="M248.24441942 779.5078125h791.015625a113.00223192 113.00223192 0 0 0 113.00223269-113.00223192v-565.01116116a113.00223192 113.00223192 0 0 0-113.00223269-113.00223192H248.24441942a113.00223192 113.00223192 0 0 0-113.00223192 113.00223192V666.50558058a113.00223192 113.00223192 0 0 0 113.00223192 113.00223192z m0-56.50111596a56.50111596 56.50111596 0 0 1-56.50111596-56.50111597v-565.01116115a56.50111596 56.50111596 0 0 1 56.50111596-56.50111595h791.015625a56.50111596 56.50111596 0 0 1 56.50111596 56.50111595V666.50558058a56.50111596 56.50111596 0 0 1-56.50111596 56.50111595H248.24441942z m395.50781251-306.29255055l324.76841528 189.44824219a28.25055836 28.25055836 0 1 0 28.4765625-48.81696385l-339.00669654-197.75390625a28.25055836 28.25055836 0 0 0-28.4765625 0l-339.00669654 197.75390625a28.25055836 28.25055836 0 1 0 28.4765625 48.81696385L643.75223192 416.71414598z"  horiz-adv-x="1316" />

    
    <glyph glyph-name="Iconx" unicode="&#58906;" d="M847.52-61.01999999999998H197.6c-35.88 0-64.98 27.18-64.98 60.72V454.68c0 33.48 29.1 60.6 64.98 60.6h649.98c35.94 0 65.04-27.12 65.04-60.6v-454.98c0-33.54-29.1-60.72-64.98-60.72zM522.56 363.65999999999997c-53.88 0-97.5-40.74-97.5-91.02 0-33.6 19.74-62.58 48.72-78.36v-86.58c0-26.16 21.84-47.4 48.78-47.4a48.12 48.12 0 0 1 48.72 47.4v86.58c29.04 15.78 48.78 44.82 48.78 78.36 0 50.28-43.62 91.02-97.5 91.02z m0 394.32c-107.7 0-195-81.42-195-181.98H230C230 726.78 360.98 849 522.56 849c161.52 0 292.5-122.22 292.5-273h-97.5c0 100.56-87.3 181.98-195 181.98z"  horiz-adv-x="1024" />

    
    <glyph glyph-name="duanxin" unicode="&#58934;" d="M1000.75165712 523.61425781V96.35795482000003a107.86576733 107.86576733 0 0 0-107.86576732-107.86576732H245.69128815a107.86576733 107.86576733 0 0 0-107.86576732 107.86576733V523.57830291l399.31906946-199.6595355a71.91051129 71.91051129 0 0 1 58.13964843-2.73259902l6.14834894 2.73259902L1000.75165712 523.61425781zM892.8858898 779.5078125a107.86576733 107.86576733 0 0 0 107.86576732-107.86576733v-71.9105113l-399.82244276-195.95614325a71.91051129 71.91051129 0 0 0-63.28125 0L137.82552083 599.73153387V671.64204518a107.86576733 107.86576733 0 0 0 107.86576733 107.86576732z"  horiz-adv-x="1117" />

    
    </font>
</defs>
</svg>
